<?xml version="1.0" encoding="utf-8"?><svg width="1824" height="559" fill="none" xmlns="http://www.w3.org/2000/svg" viewBox="0 0 1824 559"><path d="M1823.5 256.859c0 13.747-6.3 27.212-18.4 40.269-12.09 13.06-29.95 25.681-53 37.721-46.09 24.077-112.83 45.776-195.33 64.004-164.99 36.454-392.95 59.006-644.77 59.006-251.817 0-479.779-22.552-644.774-59.006-82.501-18.228-149.232-39.927-195.325-64.004-23.047-12.04-40.91-24.661-53.006-37.721C6.802 284.071.5 270.606.5 256.859s6.302-27.213 18.395-40.27c12.096-13.059 29.959-25.681 53.006-37.72 46.093-24.077 112.824-45.776 195.325-64.004C432.221 78.411 660.183 55.859 912 55.859c251.82 0 479.78 22.552 644.77 59.006 82.5 18.228 149.24 39.927 195.33 64.004 23.05 12.039 40.91 24.661 53 37.72 12.1 13.057 18.4 26.523 18.4 40.27z" stroke="#fff"/><path class="aaline1" d="M1739.29 127.999c2.39 12.586-.78 25.962-9.1 39.926-8.32 13.968-21.77 28.495-39.86 43.353-36.18 29.716-90.85 60.689-159.94 91.11-138.18 60.838-333.93 119.421-554.508 161.32-220.575 41.898-424.175 59.173-575.037 53.24-75.435-2.968-137.656-11.737-182.212-26.117-22.279-7.19-40.116-15.775-52.977-25.719-12.858-9.941-20.719-21.221-23.11-33.807-2.39-12.587.787-25.963 9.104-39.927 8.319-13.967 21.766-28.494 39.856-43.353 36.18-29.716 90.852-60.689 159.945-91.109 138.178-60.838 333.932-119.421 554.507-161.32 220.572-41.899 424.172-59.174 575.032-53.24 75.44 2.967 137.66 11.736 182.22 26.116 22.28 7.19 40.11 15.775 52.97 25.72 12.86 9.941 20.72 21.22 23.11 33.807z" stroke="#fff" stroke-opacity=".43"/><path class="aalogo1" d="M163.302 502.814a35.536 35.536 0 01-.08-47.502l14.882 14.894v17.782l-14.802 14.826zm37.938 9.83v-25.905h-19.255v-15.433h42.357c3.205 14.299-2.702 33.765-23.102 41.338zm0-45.142v-22.009a35.32 35.32 0 0113.559 8.448 35.369 35.369 0 018.455 13.561H201.24zm-20.469 0l-14.882-14.894a35.465 35.465 0 0123.983-9.063 27.469 27.469 0 017.556.893v23.064h-16.657zm-14.87 37.912l14.882-14.779h16.645v23.063a35.684 35.684 0 01-31.527-8.284z" fill="#fff"/><path class="aalogo2" d="M1579.51 68.493a25.88 25.88 0 01-6.65-17.28 25.906 25.906 0 016.59-17.302l10.84 10.843V57.7l-10.78 10.793zm27.62 7.157V56.79h-14.02V45.556h30.84c2.33 10.41-1.97 24.581-16.82 30.095zm0-32.864V26.763a25.7 25.7 0 019.87 6.15 25.706 25.706 0 016.16 9.873h-16.03zm-14.9 0l-10.83-10.843a25.81 25.81 0 0117.46-6.598c1.85-.04 3.7.18 5.5.65v16.791h-12.13zm-10.83 27.6l10.84-10.76h12.12v16.791c-4.03.89-8.22.808-12.21-.24a26.047 26.047 0 01-10.75-5.79z" fill="#fff"/></svg>