<?xml version="1.0" encoding="utf-8"?><svg width="1883" height="972" fill="none" xmlns="http://www.w3.org/2000/svg" viewBox="0 0 1883 972"><path class="abline1" d="M30.322 688.95c-9.895-38.872 2.864-81.621 34.56-125.686 31.693-44.063 82.28-89.378 147.901-133.334 131.236-87.909 322.509-170.319 542.71-226.372 220.202-56.054 427.597-75.127 584.897-60.665 78.65 7.231 144.74 22.844 193.65 46.39 48.9 23.547 80.55 54.994 90.44 93.865 9.9 38.872-2.86 81.621-34.56 125.686-31.69 44.062-82.28 89.378-147.9 133.334-131.23 87.909-322.51 170.319-542.707 226.372-220.202 56.054-427.597 75.127-584.893 60.665-78.65-7.231-144.747-22.844-193.65-46.39-48.907-23.547-80.553-54.994-90.448-93.865z" stroke="#1243C8" stroke-opacity=".53"/><path class="ablogo1" d="M128.63 819.464a29.787 29.787 0 01-7.663-19.897 29.78 29.78 0 017.596-19.922l12.475 12.485v14.906l-12.408 12.428zm31.802 8.24v-21.715h-16.141v-12.937h35.506c2.687 11.986-2.265 28.304-19.365 34.652zm0-37.84v-18.45a29.61 29.61 0 0118.453 18.45h-18.453zm-17.158 0l-12.475-12.486a29.734 29.734 0 0120.104-7.597 23.042 23.042 0 016.333.749v19.334h-13.962zm-12.466 31.78l12.476-12.39h13.952v19.334a29.92 29.92 0 01-26.428-6.944z" fill="#414141"/></svg>