<?xml version="1.0" encoding="utf-8"?><svg width="208" height="150" fill="none" xmlns="http://www.w3.org/2000/svg" viewBox="0 0 208 150"><path d="M132.326 79.226c.78-.923 1.998-1.38 3.656-1.38h3.792c.865 0 1.602.117 2.22.34.617.23 1.171.683 1.657 1.363.486.68.839 1.577 1.057 2.683h.37v-4.805c-1.001 0-1.593-.196-1.776-.58-.179-.383-.273-1.393-.273-3.027V65.37c0-1.007.128-1.643.388-1.908.251-.27.839-.419 1.759-.449v-.418h-12.258v.418c.78.03 1.3.087 1.551.179.247.087.469.309.648.662.183.353.272.906.272 1.65 0 1.251-.14 2.859-.426 4.815-.281 1.947-.797 3.598-1.534 4.94-.741 1.342-1.691 2.06-2.871 2.17v4.8h.375c.153-1.08.613-2.078 1.393-3.002zm3.119-6.443c.511-1.79.856-4.914 1.039-9.357h4.449v11.61c0 .967-.098 1.537-.294 1.712-.192.174-.776.265-1.756.265h-5.5c.864-1.023 1.55-2.44 2.062-4.23zM166.021 77.427h-.537a1.93 1.93 0 01-.992-.274c-.239-.135-.388-.297-.469-.484-.09-.244-.141-.754-.141-1.525v-4.643h6.903v4.643c0 .915-.09 1.495-.273 1.73-.277.37-.72.553-1.325.553h-.524v.418h6.353v-.413h-.529a2.01 2.01 0 01-1.005-.275c-.23-.135-.379-.296-.452-.483-.098-.244-.14-.754-.14-1.525v-9.846c0-.749.042-1.241.123-1.49a.944.944 0 01.477-.544c.316-.174.648-.257.993-.257h.528v-.418h-6.352v.418h.524c.349 0 .681.087 1.001.266.23.135.383.296.456.483.094.249.141.763.141 1.542v4.365h-6.903v-4.365c0-.749.047-1.241.136-1.49a.954.954 0 01.473-.544c.316-.174.644-.257.993-.257h.537v-.418h-6.366v.418h.524c.354 0 .691.087 1.015.266.221.135.37.296.447.483.094.249.145.763.145 1.542v9.841c0 .915-.094 1.495-.269 1.73-.281.37-.724.553-1.338.553h-.524v.418h6.366v-.418h.004zM158.765 74.02h-.438c-.478.936-.938 1.638-1.394 2.104-.349.353-.716.584-1.095.706-.375.121-.988.178-1.828.178h-2.518c-.409 0-.69-.043-.835-.126a.72.72 0 01-.307-.353c-.055-.144-.085-.558-.085-1.233v-5.023h3.264c.622 0 1.082.079 1.38.227.299.148.512.361.644.618.102.214.209.689.307 1.43h.404v-5.311h-.404c-.043.871-.256 1.477-.635 1.825-.282.261-.848.392-1.7.392h-3.264v-6.03h4.077c.738 0 1.253.062 1.547.175.367.153.639.384.827.688.191.301.353.846.511 1.651h.426l-.166-3.336h-11.449v.418h.529c.613 0 1.048.148 1.312.448.192.227.281.824.281 1.791v9.906c0 .74-.043 1.233-.124 1.473a.951.951 0 01-.477.536 2.024 2.024 0 01-.992.261h-.529v.41h11.449l1.282-3.825zM177.062 64.528c.268-.405.592-.68.975-.823.29-.105.784-.157 1.479-.157h1.789v11.657c0 .854-.08 1.399-.242 1.639-.26.392-.703.588-1.334.588h-.524v.413h6.302v-.413h-.52c-.575 0-1.001-.157-1.283-.475-.191-.231-.294-.815-.294-1.751V63.547h2.097c.613 0 1.103.104 1.487.31.375.208.673.526.899.958.145.274.251.723.328 1.354h.417l-.166-3.576h-12.126l-.179 3.576h.418c.046-.692.208-1.237.477-1.642zM82.529 63.46c.255-.27.852-.418 1.776-.448v-.418H68.792v.418c.929.03 1.521.179 1.777.449.26.27.388.906.388 1.908v9.693c0 1.006-.133 1.642-.388 1.912-.256.27-.848.423-1.777.453v.418h6.45v-.413c-.937-.03-1.529-.179-1.785-.454-.255-.27-.379-.906-.379-1.912v-11.64h6.945v11.64c0 1.01-.127 1.656-.387 1.917-.256.266-.844.418-1.764.449v.413h6.438v-.413c-.93-.03-1.526-.179-1.777-.454-.256-.27-.388-.906-.388-1.912V65.37c-.004-1.002.128-1.638.384-1.908zM122.21 77.45c-.6-.014-1.018-.075-1.261-.18-.239-.108-.388-.252-.452-.435-.063-.187-.102-.553-.106-1.098l5.807-7.575v7.314c0 .837-.106 1.368-.323 1.594-.218.227-.721.358-1.513.384v.348h5.42v-.348c-.776-.026-1.27-.153-1.492-.38-.213-.221-.323-.753-.323-1.598v-8.103c0-.84.11-1.376.323-1.599.218-.226.716-.348 1.492-.374v-.349h-5.42v.349c.733 0 1.227.1 1.474.305.243.2.362.684.362 1.45l-5.807 7.559v-7.345c0-.841.106-1.377.324-1.599.213-.227.711-.349 1.495-.375v-.348h-5.402v.348c.779.022 1.269.148 1.482.375.218.227.328.762.328 1.599v8.103c0 .845-.11 1.372-.328 1.599-.213.23-.707.352-1.482.379v.348h5.402v-.349zM106.34 74.6h-.366c-.401.78-.793 1.368-1.172 1.76-.298.297-.605.493-.925.588-.319.105-.835.153-1.542.153h-2.122c-.345 0-.58-.035-.703-.109a.569.569 0 01-.255-.288c-.047-.121-.073-.47-.073-1.032v-4.208h2.753c.524 0 .907.065 1.163.192.251.121.434.296.541.518.085.174.175.57.256 1.194h.345v-4.44h-.345c-.039.732-.213 1.238-.533 1.525-.239.218-.716.331-1.427.331h-2.753v-5.04h3.439c.617 0 1.052.048 1.299.14.311.13.537.322.695.574.157.249.298.71.43 1.381h.362l-.14-2.792H95.62v.348h.443c.516 0 .886.122 1.104.375.157.192.238.688.238 1.499v8.285c0 .62-.034 1.029-.102 1.233a.78.78 0 01-.405.449c-.26.144-.54.218-.835.218h-.443v.348h9.647l1.073-3.202zM111.513 78.085c1.185 0 2.177-.336 2.978-.998.801-.666 1.202-1.52 1.202-2.574 0-.854-.264-1.595-.788-2.227-.52-.631-1.21-1.019-2.054-1.18.784-.257 1.41-.662 1.879-1.207.477-.549.716-1.207.716-1.978 0-.85-.316-1.585-.942-2.221-.626-.636-1.461-.95-2.492-.95a6.23 6.23 0 00-2.186.388c-.448.165-.733.252-.869.252-.358 0-.584-.209-.686-.623h-.324v3.708h.319c.158-.863.482-1.564.98-2.096.495-.527 1.185-.793 2.058-.793.712 0 1.274.223 1.679.658.413.44.618 1.007.618 1.695 0 .597-.145 1.12-.443 1.568-.294.453-.678.78-1.151.98-.473.196-1.18.297-2.113.297v.622c1.321 0 2.271.288 2.842.854.575.571.861 1.272.861 2.1 0 .802-.226 1.477-.682 2.035-.448.553-1.087.832-1.905.832a3.529 3.529 0 01-1.926-.567c-.596-.379-1.056-.823-1.363-1.346l-.32.21c.976 1.707 2.344 2.56 4.112 2.56zM90.325 76.989h-.482c-.473 0-.826-.14-1.056-.414-.175-.192-.265-.693-.265-1.495v-3.715c.4.09.776.152 1.125.196.35.043.678.07.976.07 1.236 0 2.181-.332 2.859-.981.669-.653 1.01-1.499 1.01-2.54 0-.766-.222-1.424-.67-1.982a3.596 3.596 0 00-1.635-1.19c-.644-.234-1.526-.352-2.642-.352h-4.589v.348h.469c.473 0 .83.14 1.07.414.165.196.25.693.25 1.49v8.242c0 .724-.063 1.19-.187 1.386-.23.348-.605.527-1.133.527h-.469v.348h5.364v-.352h.005zm-1.803-11.466c.495-.118.895-.18 1.206-.18.52 0 .98.119 1.385.354s.72.588.946 1.063c.217.47.332.984.332 1.538 0 .801-.234 1.45-.699 1.956-.468.51-1.018.758-1.657.758a6.4 6.4 0 01-.644-.044c-.26-.03-.545-.078-.869-.144v-5.301zM188.81 83.781H68.542v1.05H188.81v-1.05zM79.645 88.281c-1.235 0-2.322.889-2.322 2.405 0 1.516 1.061 2.405 2.31 2.405 1.376 0 2.33-.99 2.33-2.405 0-1.516-1.073-2.405-2.318-2.405zm0 4.078c-.86 0-1.555-.593-1.555-1.673 0-1.076.703-1.682 1.564-1.682.852 0 1.555.619 1.555 1.682 0 1.08-.712 1.673-1.564 1.673zM85.161 90.764l-1.853-2.405h-.282v4.662h.763v-2.91l1.32 1.72h.107l1.313-1.72v2.91h.762v-4.662h-.28l-1.85 2.405zM146.262 87.384c-.311-.004-.528-.139-.567-.43l-.528.051c.047.606.456 1.002 1.099 1.002.678 0 1.023-.41 1.074-1.002-.145-.021-.345-.039-.49-.052-.047.318-.29.431-.588.431zM70.824 92.353c-.933 0-1.55-.74-1.55-1.664 0-.994.617-1.686 1.55-1.686.601.008 1.108.274 1.334.85h.729c-.243-1.05-1.164-1.556-2.058-1.556-1.244 0-2.318.884-2.318 2.387 0 1.499 1.074 2.366 2.31 2.366.924 0 1.861-.497 2.087-1.634h-.737c-.196.623-.725.937-1.347.937zM73.448 89.043h1.321v3.965h.741v-3.965h1.321v-.684h-3.383v.684zM163.161 90.764l-1.853-2.405h-.282v4.662h.763v-2.91l1.321 1.72h.102l1.317-1.72v2.91h.762v-4.662h-.281l-1.849 2.405zM154.008 89.433c.136-.48.298-.567.754-.532v-.531c-.938-.179-1.291.24-1.453.836-.124.484-.256.959-.52 1.102-.2.105-.545.114-.891.114V88.36h-.762v4.648h.762v-1.96c.222 0 .657 0 .853-.074l1.303 2.034h.861v-.113l-1.495-2.226c.302-.279.451-.732.588-1.237zM157.653 88.281c-1.235 0-2.322.889-2.322 2.405 0 1.516 1.061 2.405 2.309 2.405 1.372 0 2.331-.99 2.331-2.405 0-1.516-1.074-2.405-2.318-2.405zm0 4.078c-.86 0-1.555-.593-1.555-1.673 0-1.076.703-1.682 1.564-1.682.852 0 1.555.619 1.555 1.682 0 1.08-.712 1.673-1.564 1.673zM139.87 91.483l.051-1.42v-1.69h-.754v4.648h.26l2.786-3.159-.051 1.468v1.682h.746v-4.653h-.273l-2.765 3.124zM166.62 93.008h.754V89.06h2.075v3.947h.763v-4.649h-3.592v4.649zM144.933 91.483l.051-1.42v-1.69h-.755v4.648h.26l2.787-3.163-.051 1.477v1.686h.745v-4.662h-.272l-2.765 3.124zM171.876 91.744c-.059.532-.187.758-.767.675l-.012.571c1.082.161 1.44-.148 1.538-1.22l.273-2.722h1.491v3.96h.762v-4.649h-2.922l-.363 3.385zM90.167 88.328l-2.11 4.583v.1h.793l.443-.962h2.084l.447.962h.788v-.1l-2.096-4.583h-.35zm-.622 3.071l.8-1.86.793 1.86h-1.593zM137.375 89.433c.136-.48.298-.567.754-.532v-.531c-.938-.179-1.291.24-1.453.836-.124.484-.256.959-.52 1.102-.2.105-.545.114-.89.114V88.36h-.763v4.648h.763v-1.96c.221 0 .656 0 .852-.074l1.304 2.034h.86v-.113l-1.495-2.226c.302-.279.451-.732.588-1.237zM188.296 91.425c-.2.618-.728.928-1.354.928-.934 0-1.551-.74-1.551-1.664 0-.994.617-1.686 1.551-1.686.6.008 1.107.274 1.333.85h.729c-.243-1.05-1.163-1.556-2.058-1.556-1.244 0-2.318.884-2.318 2.387 0 1.499 1.074 2.366 2.309 2.366.925 0 1.862-.497 2.088-1.634h-.729v.009zM177.25 90.947h1.9v-.68h-1.9v-1.232h2.011v-.676h-2.774v4.649h2.812v-.702h-2.049v-1.359zM183.304 89.433c.137-.48.299-.567.755-.532v-.531c-.938-.179-1.291.24-1.453.836-.124.484-.256.959-.52 1.102-.2.105-.546.114-.891.114V88.36h-.762v4.648h.762v-1.96c.222 0 .656 0 .852-.074l1.304 2.034h.857v-.113l-1.496-2.226c.303-.279.452-.732.592-1.237zM98.794 88.281c-1.236 0-2.322.889-2.322 2.405 0 1.516 1.06 2.405 2.309 2.405 1.376 0 2.331-.99 2.331-2.405 0-1.516-1.074-2.405-2.318-2.405zm0 4.078c-.86 0-1.555-.593-1.555-1.673 0-1.076.703-1.682 1.563-1.682.852 0 1.555.619 1.555 1.682 0 1.08-.707 1.673-1.563 1.673zM131.41 92.353c-.933 0-1.551-.74-1.551-1.664 0-.994.618-1.686 1.551-1.686.601.008 1.108.274 1.334.85h.728c-.242-1.05-1.167-1.556-2.057-1.556-1.245 0-2.318.884-2.318 2.387 0 1.499 1.073 2.366 2.309 2.366.925 0 1.862-.497 2.088-1.634h-.737c-.196.623-.725.937-1.347.937zM102.4 91.744c-.06.532-.188.758-.767.675l-.013.571c1.082.161 1.44-.148 1.538-1.22l.273-2.722h1.491v3.96h.763v-4.649h-2.923l-.362 3.385zM92.605 89.043h1.32v3.965h.742v-3.965h1.32v-.684h-3.382v.684zM109.067 88.281c-1.235 0-2.322.889-2.322 2.405 0 1.516 1.061 2.405 2.309 2.405 1.372 0 2.331-.99 2.331-2.405 0-1.516-1.074-2.405-2.318-2.405zm0 4.078c-.86 0-1.555-.593-1.555-1.673 0-1.076.703-1.682 1.564-1.682.852 0 1.555.619 1.555 1.682 0 1.08-.712 1.673-1.564 1.673zM123.375 90.592c-1.308.266-1.832-.104-1.832-1.485v-.732h-.767v.732c0 1.912.853 2.518 2.599 2.209v1.698h.75v-4.639h-.75v2.217zM112.448 93.008h.763v-3.965h1.951v-.684h-2.714v4.649zM126.227 90.947h1.9v-.68h-1.9v-1.232h2.011v-.676h-2.774v4.649h2.812v-.702h-2.049v-1.359zM116.722 91.483l.051-1.42v-1.69h-.754v4.648h.259l2.787-3.159-.051 1.468v1.682h.746v-4.653h-.273l-2.765 3.124zM63.577 59.66c-.051-.997-.405-1.429-1.36-1.63A43.092 43.092 0 0155.466 56a60.495 60.495 0 01-13.269-7.196c-.583-.418-1.146-.4-1.738.026-.605.436-1.201.885-1.824 1.294-5.683 3.755-11.76 6.565-18.419 7.972-.639.135-1.074.68-1.1 1.346l-.089 2.732c.022 2.304.2 4.591.554 6.865a44.17 44.17 0 003.234 11.035c2.48 5.62 5.935 10.538 10.196 14.882 2.241 2.282 4.649 4.36 7.278 6.168.711.488 1.35.51 2.07.013a47.19 47.19 0 004.832-3.816c5.032-4.54 9.144-9.815 12.096-16a44.293 44.293 0 004.159-15.065c.213-2.196.247-4.396.132-6.596z" fill="#fff"/><path d="M52.623 73.764c.175-.183.58-.283 1.214-.305v-.287H43.245v.287c.635.022 1.04.122 1.214.305.18.183.265.619.265 1.303v6.617c0 .689-.09 1.12-.265 1.303-.174.187-.579.287-1.214.31v.282h4.402v-.283c-.64-.022-1.044-.122-1.22-.31-.17-.182-.255-.614-.255-1.302v-7.946h4.742v7.946c0 .689-.089 1.129-.264 1.307-.174.183-.575.283-1.206.305v.283h4.393v-.283c-.635-.022-1.04-.122-1.214-.31-.175-.182-.264-.618-.264-1.302v-6.617c0-.688.09-1.12.264-1.303z" fill="#fff"/><path d="M36.126 73.635c.465-2.683 1.769-7.131 5.83-8.917 4.06-1.787 8.035.71 8.035.71-1.994-.536-5.825-1.468-8.1.196-2.671 1.956-3.54 5.214-3.502 8.268.106-.74.528-1.895.754-2.575.38-1.158 1.15-2.186 1.943-2.975 1.36-1.35 3.06-1.851 5.015-1.851 2.57 0 4.874 1.368 6.276 3.546v-8.068h-22.1v21.52h5.453c-.004-2.156.03-7.715.396-9.854z" fill="#fff"/></svg>