<?xml version="1.0" encoding="utf-8"?><svg width="201" height="151" fill="none" xmlns="http://www.w3.org/2000/svg" viewBox="0 0 201 151"><path fill-rule="evenodd" clip-rule="evenodd" d="M100.572 102.471c6.573 2.074 6.275-23.111 30.775-29.037 18.225-4.445 23.902-6.815 26.292-12.445l2.689-5.63s-1.195 25.186-5.079 37.926c-3.884 12.445-11.652 32.297-54.677 32.889-43.323-.296-51.091-20.148-54.677-32.889-3.884-12.74-5.079-37.925-5.079-37.925l2.69 5.63c2.688 5.629 8.066 7.703 26.292 12.444 24.5 5.926 24.201 31.111 30.774 29.037zm-20.317 32c5.976 1.185 13.147 1.481 20.317 1.481 7.171 0 14.342-.592 20.317-1.481 12.25-1.778 23.305-5.037 30.177-10.074 16.134-11.26 23.006-30.519 23.006-51.26 0-20.74-11.353-46.222-36.152-53.037-5.378-1.481-11.055-2.37-16.732-2.963 0 0-2.39-.296-5.975-.592-5.08-.297-10.159-.593-14.641-.593-4.481 0-9.56 0-14.64.593-3.884.296-5.976.592-5.976.592-5.676.593-11.652 1.482-16.731 2.963-24.5 6.519-36.153 32.297-36.153 53.037 0 20.741 7.171 39.704 23.006 51.26 6.872 4.74 17.927 8.296 30.177 10.074zm18.226-109.63h4.183c6.274 0 18.823.889 32.268 5.63 19.122 6.814 15.835 15.703 15.835 15.703s-32.268 12.445-41.829 23.408c-5.975 6.815-7.768 10.666-8.366 12.74-.597-2.074-2.39-5.925-8.366-12.74-9.56-10.963-41.829-23.408-41.829-23.408s-3.286-8.889 15.836-15.703c13.445-4.741 25.993-5.63 32.268-5.63z" fill="#fff"/></svg>