<?xml version="1.0" encoding="utf-8"?><svg width="192" height="150" fill="none" xmlns="http://www.w3.org/2000/svg" viewBox="0 0 192 150"><path fill-rule="evenodd" clip-rule="evenodd" d="M25 95.117h60.747L55.212 54.5M88.553 65.002c.336 0 .935-.053.935-.63 0-.605-.58-.662-.935-.662h-.63v1.292h.63zm-.087-1.592c.301 0 .832-.049.832-.559 0-.546-.57-.559-.832-.559h-.542v1.118h.542zm-.902-1.417h.902c.373 0 1.192.04 1.192.871 0 .358-.243.555-.433.663.448.12.63.495.63.84 0 .259-.123.935-1.302.935h-.99v-3.31zm6.225 1.637c0-.823-.68-1.396-1.546-1.396-.883 0-1.556.6-1.556 1.422 0 .832.688 1.404 1.556 1.404.877 0 1.546-.603 1.546-1.43zm.36 0c0 .991-.839 1.73-1.911 1.73-1.064 0-1.911-.712-1.911-1.704s.839-1.721 1.911-1.721c1.077 0 1.911.712 1.911 1.695zm1.053.044h.784c.644 0 .878-.344.878-.688 0-.354-.234-.694-.878-.694h-.784v1.382zm-.36-1.681h1.14c1.057 0 1.243.616 1.243.993 0 .49-.332.988-1.243.988h-.78v1.328h-.36v-3.31zm6.312 1.637c0-.823-.679-1.396-1.546-1.396-.882 0-1.555.6-1.555 1.422 0 .832.688 1.404 1.555 1.404.878 0 1.546-.603 1.546-1.43zm.361 0c0 .991-.839 1.73-1.912 1.73-1.063 0-1.91-.712-1.91-1.704s.838-1.721 1.91-1.721c1.077 0 1.912.712 1.912 1.695zm.692-1.637h.361v1.457h1.887v-1.457h.36v3.309h-.36v-1.553h-1.887v1.553h-.361v-3.31zm3.451 0h1.979v.299h-1.618v1.194h1.564v.3h-1.564v1.216h1.618v.3h-1.979v-3.31zm6.298 0h.43l-1.332 1.552 1.439 1.757h-.449l-1.428-1.726 1.34-1.583zm-1.862 3.309h.361v-3.31h-.361v3.31zm-1.589 0h-.448l1.437-1.757-1.33-1.552h.428l1.341 1.583-1.428 1.726zm7.444-2.464c-.098-.138-.454-.604-1.228-.604-.908 0-1.517.648-1.517 1.404 0 .814.683 1.422 1.541 1.422.438 0 .926-.193 1.218-.62h.429c-.336.576-.941.92-1.647.92-1.059 0-1.902-.712-1.902-1.722 0-.983.829-1.703 1.872-1.703.751 0 1.36.33 1.662.903h-.428zm3.134-.845h.429l-1.389 1.578 1.448 1.73h-.448l-1.429-1.694 1.389-1.614zm-1.998 3.309h.36v-3.31h-.36v3.31zm3.407-3.31v2.84l2.145-2.84h.38v3.31h-.36v-2.84l-2.145 2.84h-.38v-3.31h.36zm4.286-.804c.019.179.164.348.524.348.363 0 .509-.169.529-.349h.349c-.033.346-.325.628-.878.628-.55 0-.843-.282-.876-.627h.352zm-.557.804v2.84l2.145-2.84h.38v3.31h-.36v-2.84l-2.146 2.84h-.38v-3.31h.361zm6.625 0h.428l-1.389 1.58 1.448 1.73h-.448l-1.428-1.695 1.389-1.614zm-1.999 3.31h.361v-3.31h-.361v3.31zm6.06-1.672c0-.823-.678-1.396-1.547-1.396-.882 0-1.553.6-1.553 1.422 0 .832.686 1.404 1.553 1.404.879 0 1.547-.603 1.547-1.43zm.36 0c0 .991-.838 1.73-1.911 1.73-1.062 0-1.911-.712-1.911-1.704s.838-1.721 1.911-1.721c1.078 0 1.911.712 1.911 1.695zm.693-1.637h.554l1.328 2.817 1.325-2.817h.556v3.309h-.36v-2.937l-1.37 2.937h-.304l-1.369-2.937v2.937h-.36v-3.31zm4.962 3.01h.833c.629 0 .78-.417.78-.672 0-.254-.151-.67-.78-.67h-.833v1.341zm1.599-3.01v.3h-1.599v1.068h.829c1.107 0 1.146.805 1.146.97 0 .578-.47.97-1.146.97h-1.189v-3.308h1.959zm1.35 0v2.839l2.145-2.84h.38v3.31h-.36v-2.84l-2.145 2.84h-.38v-3.31h.36zm3.369 0h.36v1.457h1.887v-1.457h.361v3.309h-.361v-1.553H147.6v1.553h-.36v-3.31zm5.591 1.9l-.692-1.515-.701 1.515h1.393zm-.891-1.9h.4l1.544 3.309h-.39l-.521-1.11h-1.677l-.522 1.11h-.389l1.555-3.31zm2.636.299h-.823v-.3h2.007v.3h-.823v3.01h-.361v-3.01zm-64.064 5.561c-.098-.14-.454-.604-1.228-.604-.908 0-1.516.649-1.516 1.404 0 .814.682 1.421 1.54 1.421.44 0 .927-.191 1.22-.62h.428c-.337.576-.942.92-1.648.92-1.058 0-1.902-.71-1.902-1.721 0-.984.83-1.704 1.872-1.704.751 0 1.36.332 1.663.904h-.429zm1.634-.547h-.825v-.3h2.009v.3h-.824v3.01h-.36v-3.01zm2.062 1.384h.784c.644 0 .878-.346.878-.69 0-.353-.234-.694-.878-.694h-.784v1.384zm-.362-1.683h1.14c1.059 0 1.245.618 1.245.993 0 .492-.332.99-1.245.99h-.778v1.326h-.362v-3.31zm6.314 1.637c0-.823-.679-1.395-1.546-1.395-.882 0-1.556.598-1.556 1.423 0 .83.689 1.402 1.556 1.402.878 0 1.546-.603 1.546-1.43zm.361 0c0 .993-.839 1.73-1.912 1.73-1.063 0-1.91-.71-1.91-1.702 0-.993.838-1.723 1.91-1.723 1.077 0 1.912.712 1.912 1.695zm1.053-1.637v2.84l2.145-2.84h.38v3.309h-.361v-2.84l-2.145 2.84h-.381v-3.31h.362zm3.864.3h-.824v-.3h2.01v.3h-.825v3.01h-.361v-3.01zm1.702-.3h1.979v.3H107.5V68.5h1.566v.3H107.5v1.216h1.619v.299h-1.979v-3.31zm5.742 3.31h-.395l-1.263-2.893-1.271 2.892h-.395l1.496-3.31h.341l1.487 3.31zm.887-.3h.834c.629 0 .78-.416.78-.67 0-.256-.151-.672-.78-.672h-.834v1.342zm0-3.01v1.368h.83c.731 0 1.145.382 1.145.971 0 .577-.463.97-1.145.97h-1.191v-3.31h.361zm2.589 0h.361v1.457h1.886v-1.457h.361v3.309h-.361v-1.55h-1.886v1.55h-.361" fill="#fff"/><mask id="ara" style="mask-type:alpha" maskUnits="userSpaceOnUse" x="25" y="54" width="142" height="42"><path d="M25 95.5h142v-41H25v41z" fill="#fff"/></mask><g mask="url(#ara)" fill-rule="evenodd" clip-rule="evenodd" fill="#fff"><path d="M122.53 70.316h.361v-3.31h-.361v3.31zm-2.361-.3h.834c.629 0 .78-.415.78-.67 0-.255-.151-.671-.78-.671h-.834v1.342zm0-3.01v1.37h.83c.732 0 1.145.38 1.145.97 0 .577-.463.97-1.145.97h-1.19v-3.31h.36zm4.467 1.62l-1.151-1.62h.424l.95 1.33.947-1.33h.424l-1.166 1.62 1.238 1.69h-.423l-1.02-1.413-1.023 1.413h-.424l1.224-1.69zm4.703-1.62h.556l1.327 2.818 1.326-2.817h.555v3.309h-.361v-2.937l-1.369 2.937h-.302l-1.37-2.937v2.937h-.362v-3.31zm6.743 1.902l-.693-1.516-.701 1.516h1.394zm-.893-1.901h.4l1.546 3.31h-.391l-.522-1.11h-1.676l-.522 1.11h-.391l1.556-3.31zm2.638.3h-.824v-.3h2.008v.3h-.823v3.01h-.361v-3.01zm1.701-.3h1.979v.3h-1.618V68.5h1.564v.3h-1.564v1.216h1.618v.299h-1.979v-3.31zm3.096 1.683h.784c.644 0 .878-.346.878-.69 0-.353-.234-.694-.878-.694h-.784v1.384zm-.362-1.683h1.142c1.057 0 1.242.618 1.242.993 0 .492-.331.99-1.242.99h-.78v1.326h-.362v-3.31zm3.37 0v2.84l2.145-2.84h.38v3.309h-.362v-2.84l-2.144 2.84h-.381v-3.31h.362zm5.507 1.9l-.691-1.514-.703 1.515h1.394zm-.892-1.9h.4l1.546 3.31h-.39l-.523-1.11h-1.675l-.522 1.11h-.391l1.555-3.31zm5.489 3.31h-.395l-1.262-2.893-1.272 2.892h-.395l1.496-3.31h.343l1.485 3.31zm3.832-1.673c0-.823-.677-1.395-1.545-1.395-.882 0-1.555.598-1.555 1.423 0 .83.686 1.402 1.555 1.402.878 0 1.545-.603 1.545-1.43zm.361 0c0 .993-.839 1.73-1.91 1.73-1.064 0-1.912-.71-1.912-1.702 0-.993.838-1.723 1.912-1.723 1.077 0 1.91.712 1.91 1.695zm1.681 1.373c.337 0 .937-.054.937-.63 0-.604-.581-.662-.937-.662h-.629v1.292h.629zm-.087-1.593c.302 0 .834-.049.834-.557 0-.546-.57-.56-.834-.56h-.542v1.117h.542zm-.902-1.417h.902c.375 0 1.194.042 1.194.872 0 .358-.244.556-.434.662.449.12.629.497.629.841 0 .26-.122.934-1.302.934h-.989v-3.31zm-72.068-2.005c.336 0 .935-.053.935-.63 0-.605-.58-.662-.935-.662h-.63v1.292h.63zm-.087-1.592c.301 0 .832-.049.832-.559 0-.546-.57-.559-.832-.559h-.542v1.118h.542zm-.902-1.417h.902c.373 0 1.192.04 1.192.871 0 .358-.243.555-.433.663.448.12.63.495.63.84 0 .259-.123.935-1.302.935h-.99v-3.31zm6.225 1.637c0-.823-.68-1.396-1.546-1.396-.883 0-1.556.6-1.556 1.422 0 .832.688 1.404 1.556 1.404.877 0 1.546-.603 1.546-1.43zm.36 0c0 .991-.839 1.73-1.911 1.73-1.064 0-1.911-.712-1.911-1.704s.839-1.721 1.91-1.721c1.078 0 1.912.712 1.912 1.695zm1.053.044h.784c.644 0 .878-.344.878-.688 0-.354-.234-.694-.878-.694h-.784v1.382zm-.36-1.681h1.14c1.057 0 1.243.616 1.243.993 0 .49-.332.988-1.243.988h-.78v1.328h-.36v-3.31zm6.312 1.637c0-.823-.679-1.396-1.546-1.396-.882 0-1.555.6-1.555 1.422 0 .832.688 1.404 1.555 1.404.878 0 1.546-.603 1.546-1.43zm.361 0c0 .991-.839 1.73-1.912 1.73-1.063 0-1.91-.712-1.91-1.704s.838-1.721 1.91-1.721c1.077 0 1.912.712 1.912 1.695zm.692-1.637h.361v1.457h1.886v-1.457h.361v3.309h-.361v-1.553h-1.886v1.553h-.361v-3.31zm3.451 0h1.979v.299h-1.618v1.194h1.564v.3h-1.564v1.216h1.618v.3h-1.979v-3.31zm6.298 0h.43l-1.332 1.552 1.439 1.757h-.449l-1.428-1.726 1.34-1.583zm-1.862 3.309h.361v-3.31h-.361v3.31zm-1.589 0h-.448l1.437-1.757-1.33-1.552h.428l1.341 1.583-1.428 1.726zm7.444-2.464c-.098-.138-.454-.604-1.228-.604-.908 0-1.517.648-1.517 1.404 0 .814.683 1.422 1.541 1.422.438 0 .926-.193 1.218-.62h.429c-.336.576-.941.92-1.647.92-1.059 0-1.902-.712-1.902-1.722 0-.983.829-1.703 1.872-1.703.751 0 1.36.33 1.662.903h-.428zm3.134-.845h.429l-1.389 1.578 1.448 1.73h-.448l-1.429-1.694 1.389-1.614zm-1.998 3.309h.36v-3.31h-.36v3.31zm3.407-3.31v2.84l2.145-2.84h.38v3.31h-.36v-2.84l-2.145 2.84h-.38v-3.31h.36zm4.286-.804c.019.179.164.348.524.348.363 0 .509-.169.529-.349h.349c-.033.346-.325.628-.878.628-.55 0-.843-.282-.876-.627h.352zm-.557.804v2.84l2.145-2.84h.38v3.31h-.36v-2.84l-2.146 2.84h-.38v-3.31h.361zm6.625 0h.428l-1.389 1.58 1.448 1.73h-.448l-1.428-1.695 1.389-1.614zm-1.999 3.31h.361v-3.31h-.361v3.31zm6.06-1.672c0-.823-.678-1.396-1.547-1.396-.882 0-1.553.6-1.553 1.422 0 .832.686 1.404 1.553 1.404.879 0 1.547-.603 1.547-1.43zm.36 0c0 .991-.838 1.73-1.911 1.73-1.062 0-1.911-.712-1.911-1.704s.838-1.721 1.911-1.721c1.078 0 1.911.712 1.911 1.695zm.692-1.637h.555l1.328 2.817 1.325-2.817h.556v3.309h-.36v-2.937l-1.37 2.937h-.304l-1.369-2.937v2.937h-.361v-3.31zm4.963 3.01h.833c.629 0 .78-.417.78-.672 0-.254-.151-.67-.78-.67h-.833v1.341zm1.599-3.01v.3h-1.599v1.068h.829c1.107 0 1.146.805 1.146.97 0 .578-.47.97-1.146.97h-1.189v-3.308h1.959zm1.35 0v2.839l2.145-2.84h.38v3.31h-.36v-2.84l-2.145 2.84h-.38v-3.31h.36zm3.368 0h.361v1.457h1.887v-1.457h.361v3.309h-.361v-1.553H147.6v1.553h-.361v-3.31zm5.592 1.9l-.692-1.515-.701 1.515h1.393zm-.891-1.9h.4l1.544 3.309h-.391l-.52-1.11h-1.678l-.521 1.11h-.389l1.555-3.31zm2.636.299h-.823v-.3h2.007v.3h-.823v3.01h-.361v-3.01zm-64.064 5.561c-.098-.14-.454-.604-1.228-.604-.908 0-1.516.649-1.516 1.404 0 .814.682 1.421 1.54 1.421.44 0 .927-.191 1.22-.62h.428c-.337.576-.942.92-1.648.92-1.058 0-1.902-.71-1.902-1.721 0-.984.83-1.704 1.872-1.704.751 0 1.36.332 1.663.904h-.429zm1.634-.547h-.825v-.3h2.009v.3h-.824v3.01h-.36v-3.01zm2.062 1.384h.784c.644 0 .878-.346.878-.69 0-.353-.234-.694-.878-.694h-.784v1.384zm-.362-1.683h1.14c1.059 0 1.245.618 1.245.993 0 .492-.332.99-1.245.99h-.778v1.326h-.362v-3.31zm6.314 1.637c0-.823-.679-1.395-1.546-1.395-.882 0-1.556.598-1.556 1.423 0 .83.689 1.402 1.556 1.402.878 0 1.546-.603 1.546-1.43zm.361 0c0 .993-.839 1.73-1.912 1.73-1.063 0-1.91-.71-1.91-1.702 0-.993.838-1.723 1.91-1.723 1.077 0 1.912.712 1.912 1.695zm1.053-1.637v2.84l2.145-2.84h.38v3.309h-.361v-2.84l-2.145 2.84h-.381v-3.31h.362zm3.864.3h-.824v-.3h2.01v.3h-.825v3.01h-.361v-3.01zm1.702-.3h1.979v.3H107.5V68.5h1.566v.3H107.5v1.216h1.619v.299h-1.979v-3.31zm5.742 3.31h-.395l-1.263-2.893-1.271 2.892h-.395l1.496-3.31h.341l1.487 3.31zm.887-.3h.834c.629 0 .78-.416.78-.67 0-.256-.151-.672-.78-.672h-.834v1.342zm0-3.01v1.368h.83c.731 0 1.145.382 1.145.971 0 .577-.463.97-1.145.97h-1.191v-3.31h.361zm2.589 0h.361v1.457h1.886v-1.457h.361v3.309h-.361v-1.55h-1.886v1.55h-.361"/><path d="M122.533 70.32h.361v-3.31h-.361v3.31zm-2.36-.3h.834c.629 0 .78-.414.78-.67 0-.255-.151-.671-.78-.671h-.834v1.342zm0-3.01v1.37h.83c.731 0 1.144.38 1.144.97 0 .577-.463.97-1.144.97h-1.191v-3.31h.361zm4.466 1.62l-1.15-1.62h.423l.95 1.33.948-1.33h.424l-1.166 1.62 1.238 1.69h-.424l-1.02-1.413-1.022 1.413h-.424l1.223-1.69zm4.704-1.62h.556l1.326 2.818 1.326-2.817h.555v3.31h-.36v-2.938l-1.37 2.937h-.302l-1.37-2.937v2.937h-.361v-3.31zm6.742 1.902l-.692-1.515-.701 1.515h1.393zm-.893-1.901h.4l1.546 3.31h-.391l-.522-1.11h-1.676l-.521 1.11h-.391l1.555-3.31zm2.638.3h-.823v-.3h2.007v.3h-.823v3.01h-.361v-3.01zm1.702-.3h1.979v.3h-1.618v1.194h1.564v.3h-1.564v1.216h1.618v.3h-1.979v-3.31zm3.095 1.683h.785c.644 0 .878-.346.878-.69 0-.353-.234-.694-.878-.694h-.785v1.384zm-.362-1.683h1.142c1.058 0 1.243.618 1.243.993 0 .492-.332.99-1.243.99h-.78v1.326h-.362v-3.31zm3.37 0v2.84l2.145-2.84h.38v3.31h-.362v-2.84l-2.143 2.84h-.382v-3.31h.362zm5.507 1.9l-.691-1.514-.702 1.515h1.393zm-.891-1.9h.4l1.545 3.31h-.39l-.522-1.11h-1.676l-.522 1.11h-.39l1.555-3.31zm5.489 3.31h-.395l-1.263-2.893-1.271 2.892h-.396l1.497-3.31h.342l1.486 3.31zm3.831-1.673c0-.823-.677-1.395-1.544-1.395-.883 0-1.555.599-1.555 1.423 0 .83.686 1.402 1.555 1.402.877 0 1.544-.603 1.544-1.43zm.361 0c0 .993-.839 1.73-1.91 1.73-1.063 0-1.911-.71-1.911-1.702 0-.993.837-1.723 1.911-1.723 1.077 0 1.91.712 1.91 1.695zm1.682 1.373c.336 0 .937-.054.937-.63 0-.604-.581-.662-.937-.662h-.629v1.292h.629zm-.088-1.593c.302 0 .835-.049.835-.557 0-.546-.571-.56-.835-.56h-.541v1.117h.541zm-.902-1.417h.902c.376 0 1.195.042 1.195.872 0 .358-.245.556-.435.662.45.12.629.497.629.841 0 .26-.122.934-1.301.934h-.99v-3.31zM32.11 93.545h6.34c.097-1.499.444-2.948.89-4.394l-5.893-2.446.844-2.048 5.842 2.495c.644-1.347 1.485-2.645 2.525-3.743l-4.506-4.545 1.534-1.547 4.458 4.544a12.467 12.467 0 013.714-2.497l-2.428-5.893 1.98-.848 2.428 5.892c1.436-.45 2.872-.8 4.356-.85v-6.392h2.18v6.392c1.486.05 2.92.4 4.356.85l2.428-5.892 2.03.848-2.428 5.893c1.387.6 2.575 1.447 3.665 2.497l4.505-4.544 1.536 1.547-4.506 4.545c1.04 1.098 1.881 2.395 2.525 3.743l5.842-2.495.794 2.048-5.844 2.446c.495 1.398.744 2.895.892 4.394h6.338l-.008 1.439H32.11l.002-1.439zM91.985 91.521h1.965c.842 0 2.106-.032 3.124-.593 1.122-.624 1.44-1.676 1.44-2.532 0-.693-.246-1.876-1.72-2.501-.984-.429-2.142-.429-3.124-.429h-1.685v6.055zm0-9.345h1.299c.701 0 3.544-.065 3.544-2.863 0-2.005-1.65-2.763-3.51-2.763h-1.333v5.626zm1.228-9.113c1.298 0 3.825 0 5.721 1.382 1.368.987 2.177 2.698 2.177 4.54 0 2.83-2.002 3.982-2.632 4.31 1.543.23 2.455.856 3.053 1.383 1.404 1.25 1.684 2.96 1.684 4.112 0 1.283-.386 3.093-2.001 4.442-1.754 1.447-3.895 1.777-5.931 1.777h-7.862V73.063h5.79zm16.146 9.278l8.598-9.278h5.758l-9.899 10.133 10.425 11.812h-6.038l-8.318-9.837-.526.492v9.345h-4.563V73.063h4.563"/><path d="M139.026 94.22c-1.405.691-3.265 1.283-5.793 1.283-4.106 0-6.598-1.317-8.563-3.06-2.703-2.435-3.756-5.166-3.756-8.39 0-3.981 1.756-6.844 3.756-8.588 2.352-2.072 5.264-2.895 8.6-2.895 1.648 0 3.614.264 5.756 1.349v5c-2.142-2.302-4.809-2.468-5.653-2.468-4.703 0-7.756 3.62-7.756 7.667 0 4.87 4.002 7.502 7.933 7.502 2.175 0 4.106-.888 5.476-2.402v5.002zm4.737-21.552h3.159l6.354 14.345 6.632-14.345h3.16l3.931 22.341h-4.634l-2.105-13.523-6.423 13.82h-1.265l-6.142-13.82-2.386 13.523h-4.634"/></g></svg>