<?xml version="1.0" encoding="utf-8"?><svg class="avclients_more_decor" width="1617" height="592" fill="none" xmlns="http://www.w3.org/2000/svg" viewBox="0 0 1617 592"><path d="M1616.5 297.254c0 12.159-5.58 24.074-16.29 35.634-10.72 11.562-26.55 22.74-46.98 33.403-40.85 21.326-100.01 40.546-173.14 56.693-146.27 32.292-348.35 52.27-571.59 52.27-223.236 0-425.323-19.978-571.588-52.27-73.137-16.147-132.289-35.367-173.145-56.693-20.428-10.663-36.258-21.841-46.974-33.403C6.078 321.328.5 309.413.5 297.254c0-12.159 5.578-24.074 16.293-35.634 10.716-11.563 26.546-22.74 46.974-33.403 40.856-21.326 100.008-40.546 173.145-56.693 146.265-32.293 348.352-52.27 571.588-52.27 223.24 0 425.32 19.977 571.59 52.27 73.13 16.147 132.29 35.367 173.14 56.693 20.43 10.663 36.26 21.84 46.98 33.403 10.71 11.56 16.29 23.475 16.29 35.634z" stroke="#fff"/><path class="avline" d="M1474.29 162.766c2.1 11.071-.68 22.839-7.98 35.129-7.29 12.292-19.1 25.079-34.99 38.158-31.77 26.158-79.8 53.418-140.5 80.186-121.39 53.533-293.383 105.057-487.195 141.872-193.812 36.815-372.717 51.945-505.285 46.653-66.289-2.646-120.964-10.398-160.117-23.083-19.576-6.342-35.247-13.91-46.546-22.67-11.296-8.758-18.198-18.686-20.3-29.758-2.104-11.071.677-22.839 7.975-35.128 7.3-12.293 19.104-25.08 34.991-38.159 31.775-26.158 79.8-53.417 140.501-80.186 121.394-53.533 293.386-105.057 487.198-141.872 193.811-36.815 372.718-51.945 505.288-46.652 66.29 2.646 120.96 10.397 160.11 23.082 19.58 6.343 35.25 13.911 46.55 22.671 11.3 8.757 18.2 18.686 20.3 29.757z" stroke="#fff" stroke-opacity=".43"/><path class="avlogo1" d="M138.251 507.092a35.54 35.54 0 01-.08-47.503l14.882 14.895v17.782l-14.802 14.826zm37.938 9.83v-25.905h-19.255v-15.433h42.357c3.205 14.299-2.702 33.765-23.102 41.338zm0-45.142v-22.01a35.334 35.334 0 0122.014 22.01h-22.014zm-20.468 0l-14.882-14.895a35.466 35.466 0 0123.983-9.062c2.547-.055 5.09.246 7.555.893v23.064h-16.656zm-14.871 37.912l14.882-14.78h16.645v23.064a35.666 35.666 0 01-16.763-.331 35.707 35.707 0 01-14.764-7.953z" fill="#fff"/><path class="avlogo2" d="M1320.87 106.027a20.141 20.141 0 01-5.19-13.472 20.157 20.157 0 015.14-13.49l8.45 8.454v10.093l-8.4 8.415zm21.53 5.579V96.903h-10.93v-8.76h24.04c1.82 8.116-1.53 19.165-13.11 23.463zm0-25.622V73.492c2.9.99 5.53 2.63 7.69 4.795a20.003 20.003 0 014.8 7.697h-12.49zm-11.62 0l-8.45-8.454a20.153 20.153 0 0113.62-5.144c1.44-.03 2.89.14 4.29.508v13.09h-9.46zm-8.44 21.519l8.45-8.389h9.45v13.091c-3.15.694-6.41.629-9.52-.188a20.303 20.303 0 01-8.38-4.514z" fill="#fff"/></svg>