<?xml version="1.0" encoding="utf-8"?><svg width="129" height="151" fill="none" xmlns="http://www.w3.org/2000/svg" viewBox="0 0 129 151"><path fill-rule="evenodd" clip-rule="evenodd" d="M64.323 31.686c-24.3.12-43.903 19.916-43.783 44.216.12 24.3 19.916 43.902 44.216 43.782 24.3-.119 43.903-19.916 43.783-44.216-.12-24.299-19.917-43.902-44.216-43.782zm.414 84.053c-22.122.109-40.143-17.735-40.252-39.857-.109-22.12 17.735-40.142 39.857-40.251 22.121-.11 40.143 17.736 40.252 39.857.109 22.121-17.736 40.142-39.857 40.251z" fill="#fff"/><path fill-rule="evenodd" clip-rule="evenodd" d="M55.618 45.803a31.188 31.188 0 018.764-1.293c3.04-.015 5.983.406 8.766 1.204l-8.664 19.46-8.865-19.371z" fill="#fff"/><path fill-rule="evenodd" clip-rule="evenodd" d="M81.15 49.294a31.37 31.37 0 018.485 7.883l-14.22 31.886-5.61-12.309-10.511.052-5.487 12.363-14.513-31.774a31.343 31.343 0 018.385-7.935L59.284 74.87l10.548-.051 11.317-25.526zm-46.768 18.47a31.227 31.227 0 00-1.014 8.074c.06 12.218 7.139 22.759 17.397 27.822L34.382 67.765z" fill="#fff"/><path fill-rule="evenodd" clip-rule="evenodd" d="M56.062 105.692a31.162 31.162 0 008.63 1.166 31.217 31.217 0 008.609-1.248l-8.709-19.088-8.53 19.17zm22.53-2.173C88.8 98.356 95.775 87.746 95.714 75.528a31.267 31.267 0 00-1.074-7.996L78.592 103.52z" fill="#fff"/></svg>