<?xml version="1.0" encoding="utf-8"?><svg width="251" height="151" fill="none" xmlns="http://www.w3.org/2000/svg" viewBox="0 0 251 151"><path d="M186.613 48.452a.73.73 0 010 .272v-.272z" fill="#4F4C4D"/><path d="M190.694 78.632c-.159 8.811 1.732 13.478 8.951 13.478 7.206 0 8.24-7.95 8.24-14 0-6.053-1.367-11.93-8.939-11.93-4.644 0-8.074 3.632-8.252 12.452zm-14.603 36.82V55.81h14.781v2.419c0 3.227 1.294 1.896 2.336.639.174-.21 3.469-4.268 10.888-4.268 7.397 0 18.904 5.185 18.904 23.51 0 14.176-6.865 24.547-18.721 24.547-6.534 0-10.311-2.589-11.174-3.633-.865-1.03-2.066-1.21-2.066 0v16.428h-14.948zm-114.25-79h15.98v42.18c0 7.256-3.097 22.473-25.255 22.473C30.404 101.105 28 86.922 28 78.975v-7.778h15.463V78.8c0 4.667 3.093 8.987 8.93 8.987 5.841 0 9.449-3.283 9.449-8.811V36.452zm49.395 35.782c0-4.326-2.4-8.474-7.898-8.474-5.326 0-7.217 3.799-7.217 8.474h15.115zm-9.439-18.153c12.548 0 23.538 4.839 23.538 27.14H95.617c0 7.087 2.918 10.027 8.071 10.027 5.156 0 6.872-4.152 6.872-4.152h14.607c0 6.398-8.763 15.042-21.994 14.87-15.114 0-22.503-11.237-22.503-22.82 0-11.587 6.524-25.065 21.127-25.065zm56.948 18.153c0-4.326-2.403-8.474-7.901-8.474-5.323 0-7.218 3.799-7.218 8.474h15.119zm-9.439-18.153c12.547 0 23.534 4.839 23.534 27.14h-29.717c0 7.087 2.92 10.027 8.078 10.027 5.15 0 6.869-4.152 6.869-4.152h14.607c0 6.398-8.764 15.042-21.992 14.87-15.122 0-22.51-11.237-22.51-22.82 0-11.587 6.532-25.065 21.131-25.065zm63.91 54.221c0-2.362 1.911-4.281 4.266-4.281 2.348 0 4.255 1.919 4.255 4.281 0 2.358-1.907 4.289-4.255 4.289-2.355 0-4.266-1.931-4.266-4.289zm-.492 0c0 2.643 2.127 4.788 4.758 4.788 2.615 0 4.753-2.145 4.753-4.788 0-2.643-2.138-4.788-4.753-4.788-2.631 0-4.758 2.145-4.758 4.788z" fill="#fff"/><path d="M220 110.452l-1.092-2.312c.346-.108.462-.184.646-.361.24-.231.39-.595.39-.926 0-.833-.715-1.401-1.751-1.401H216v5h.651v-2.166h1.584l1.041 2.166H220zm-3.367-2.673v-1.783h1.547c.646 0 1.057.331 1.057.842 0 .581-.436.941-1.148.941h-1.456z" fill="#fff"/></svg>