<?xml version="1.0" encoding="utf-8"?><svg width="130" height="150" fill="none" xmlns="http://www.w3.org/2000/svg" viewBox="0 0 130 150"><path d="M102.744 108.49c-1.446-4.361-7.285-15.308-11.877-21.466-2.924-3.939 9.135-5.238 5.258-15.602-3.404-9.051-9.723-17.362-7.752-22.804.816-2.222 1.998-2.317 2.892-2.304 1.358.026.29 1.269 1.857 5.478 1.802 4.8 8.114 8.993 7.556 6.583-2.84-11.63-3.248-13.367-4.66-14.705-1.414-1.342-3.549-2.067-5.357-1.994-5.359.21-5.594 5.498-6.713 4.727-1.156-.814-4.517-3.653-4.827-5.43-.183-1.048-.366-1.196-1.407-1.605-3.695-1.453-11.008-4.483-14.89-3.758-8.498 1.6-8.83 4.371-9.82 4.698-.77.254-3.629 1.328-4.611 1.902-.61.362-.944.738-.63 1.437.548 1.233 2.193 3.794 2.914 4.44.37.33 2.16.99 2.33.66.911-1.813 4.25-2.166 4.847-1.731.872.65 1.93 2.472.904 2.907-.721.304-4.099 1.026-5.032.205-.075-.083-.265-.205-.408-.01-.699.962-2.008.702-1.352 1.866 1.835 3.197 3.072 4.806 5.591 2.986.895-.65 1.475-.646 1.72-.465 1.377 1.052.526 1.668-1.472 4.223-.287.372-.558.57-1.077.32-12.513-6.069-14.65-8.996-22.36-7.575-1.41.263-4.115 3.02-4.259 4.48-.046.458.516 2.749 1.518 2.637.454-.053 1.586-.647 2.94-.41 1.952.337.892 2.361 1.923 2.341 2.49-.033 7.14 3.468 5.444 3.643-2.513.224-11.032 1.434-12.36 3.77-1.932 3.373-2.39 5.367-.193 7.487 1.198 1.18 3.946-3.418 6.221-.172.225.324.444.1 1.286-.131 1.057-.287 14.223-.818 17.324.916 1.364.758 3.841 3.115 3.841 3.115-5.437 9.504-9.634 16.073-9.367 19.792.37 4.882.474 4.509-1.612 5.023-7.895 2.031-10.215-.761-10.59 9.751-.07 1.507-.49.244 9.598.224 15.865-.089 13.215 2.95 13.039-4.265-.036-1.339-.239-2.697.96-3.999 11.582-12.724 11.08-13.159 12.081-12.243.676.627 8.081 6.016 9.583 7.117 1.508 1.101 2.904 1.477 4.618 1.5 1.224.02 1.563 2.176.522 2.374-5.58 1.087-7.337.454-7.601 9.368-.078 1.47-.209-.112 9.7.201 14.37.438 6.358 1.942 13.352-3.85.679-.564.695-.798.408-1.652zm-18.44-30.36c-.523-.5-4.769-5.656-6.13-7.232-2.947-3.402 3.767-4.025 6.456-5.442 1.573-.844 1.426-1.556 1.449-3.979.007-.333.43-.596.65-.207 5.995 11.187 6.769 11.965 5.003 14.157-.816 1.016-5.539 4.526-7.428 2.703z" fill="#fff"/></svg>