<?xml version="1.0" encoding="utf-8"?><svg width="260" height="151" fill="none" xmlns="http://www.w3.org/2000/svg" viewBox="0 0 260 151"><path d="M69.168 105.669c-16.885 0-30.615-13.552-30.615-30.217s13.73-30.217 30.615-30.217c16.883 0 30.614 13.552 30.614 30.217s-13.73 30.217-30.614 30.217zm0-52.88c-12.66 0-22.962 10.168-22.962 22.663 0 12.495 10.302 22.663 22.962 22.663 12.659 0 22.96-10.168 22.96-22.663 0-12.495-10.301-22.663-22.96-22.663z" fill="#fff"/><path d="M108.926 105.669c-16.884 0-30.615-13.552-30.615-30.217s13.731-30.217 30.615-30.217 30.615 13.552 30.615 30.217-13.731 30.217-30.615 30.217zm0-52.88c-12.659 0-22.96 10.168-22.96 22.663 0 12.495 10.301 22.663 22.96 22.663s22.961-10.168 22.961-22.663c0-12.495-10.302-22.663-22.961-22.663z" fill="#fff"/><path d="M151.078 105.669c-16.884 0-30.615-13.552-30.615-30.217s13.731-30.217 30.615-30.217 30.614 13.552 30.614 30.217-13.73 30.217-30.614 30.217zm0-52.88c-12.66 0-22.961 10.168-22.961 22.663 0 12.495 10.301 22.663 22.961 22.663 12.659 0 22.961-10.168 22.961-22.663 0-12.495-10.302-22.663-22.961-22.663z" fill="#fff"/><path d="M190.832 105.669c-16.884 0-30.615-13.552-30.615-30.217s13.731-30.217 30.615-30.217 30.614 13.552 30.614 30.217-13.73 30.217-30.614 30.217zm0-52.88c-12.66 0-22.962 10.168-22.962 22.663 0 12.495 10.302 22.663 22.962 22.663 12.659 0 22.961-10.168 22.961-22.663 0-12.495-10.302-22.663-22.961-22.663z" fill="#fff"/></svg>