<?xml version="1.0" encoding="utf-8"?><svg width="217" height="150" fill="none" xmlns="http://www.w3.org/2000/svg" viewBox="0 0 217 150"><path d="M119.457 85.467h-11.032V64.534h9.699c4.389 0 6.771 2.716 6.771 5.93 0 1.442-.733 2.916-1.855 4.031 1.656.868 3.074 2.823 3.074 4.862-.003 3.586-2.821 6.11-6.657 6.11zm-5.823-4.21h5.113c1.263 0 2.094-.928 2.094-2.067v-.033c0-1.14-.831-2.067-2.094-2.067h-5.113v4.166zm0-8.38h3.811c1.364 0 2.176-.927 2.176-2.066 0-1.139-.762-2.066-2.176-2.066h-3.811v4.133zM60.8 85.467l-7.588-10.7 7.36-10.233h-6.135l-5.85 8.384v-8.384h-5.332v20.933h5.333v-8.59l5.873 8.59h6.34zM156.616 64.533v15.49c0 .695-.309 1.23-.965 1.23-.924 0-.965-1.05-.965-1.745h-5.003c0 3.359 1.938 6.49 6.121 6.49 3.639 0 6.145-2.94 6.145-6.555V69.247h7.211v16.22h5.333V64.533h-17.877z" fill="#fff"/><path d="M84.772 64.534l-7.38 15.457c-1.367 2.941-4.182 6.006-8.975 6.006-4.081 0-7.916-2.461-8.599-7.882h5.172c.382 2.165 1.935 3.128 3.667 3.128 1.486 0 2.484-.875 2.76-1.376l-8.792-15.333h6.133l5.585 10.134 4.605-10.134h5.824zM33.778 85.467H19.58V64.533h12.865c4.389 0 6.77 2.716 6.77 5.93 0 1.441-.732 2.916-1.854 4.03 1.656.869 3.074 2.824 3.074 4.863-.001 3.587-2.82 6.111-6.657 6.111zm-8.987-4.21h8.278c1.264 0 2.094-.928 2.094-2.067v-.033c0-1.14-.83-2.067-2.094-2.067h-8.278v4.166zm0-8.38h6.976c1.364 0 2.176-.927 2.176-2.066 0-1.139-.761-2.066-2.176-2.066h-6.976v4.133zM100.053 77.609c-.82 1.919-2.584 3.27-5.041 3.27-3.47 0-5.558-2.693-5.558-5.873v-.01c0-3.182 2.089-5.874 5.558-5.874 2.466 0 4.234 1.361 5.05 3.29h5.738C104.727 67.618 100.676 64 95.012 64c-6.645 0-11.073 4.98-11.073 10.996v.008C83.94 81.02 88.367 86 95.012 86c5.655 0 9.702-3.609 10.783-8.392h-5.742zM143.408 64.534l-8.899 12.099V64.534h-5.332v20.933h4.864l8.902-12.088v12.088h5.333V64.534h-4.868zM180.52 64.533V78.69c0 1.31-.754 2.086-2.101 2.086h-1.571v4.69h2.826c3.712 0 6.178-2.322 6.178-6.586v-9.634h5.396v16.22h5.332V64.533h-16.06z" fill="#fff"/></svg>