<?xml version="1.0" encoding="utf-8"?><svg width="132" height="150" fill="none" xmlns="http://www.w3.org/2000/svg" viewBox="0 0 132 150"><path fill-rule="evenodd" clip-rule="evenodd" d="M99.612 81.61s-23.636-21.913-34.09-21.913c-10.304 0-34.698 22.065-34.698 22.065v-6.045s.606-4.836 3.94-8.161c3.333-3.325 25.454-22.518 25.454-22.518s5-4.685 11.515.151c6.516 4.836 23.182 20.856 23.182 20.856s5.303 4.836 5.303 9.672-.606 6.045-.606 6.045v-.151zM32.036 106.85s23.637-21.913 34.091-21.913c10.303 0 34.697 22.064 34.697 22.064v-6.045s-.606-4.836-3.94-8.16C93.553 89.468 71.43 70.275 71.43 70.275s-5-4.685-11.515.151C53.4 75.263 36.733 91.283 36.733 91.283s-5.303 4.836-5.303 9.672.606 6.045.606 6.045v-.151z" fill="#fff"/></svg>