<?xml version="1.0" encoding="utf-8"?><svg width="215" height="150" fill="none" xmlns="http://www.w3.org/2000/svg" viewBox="0 0 215 150"><path d="M48.833 64.18l-4.237 7.337-.2-.015c-.003 0-1.597-.022-3.672.005-2.525.034-4.756.215-6.12.501l-.748.184 4.61-8.009H28.65L16.497 85.934h9.82l2.671-4.963c1.21-2.22 3.853-4.726 6.792-5.027a32.758 32.758 0 013.263-.144c1.456 0 2.545.082 2.557.082l.528.012-5.455 10.038h9.83L58.657 64.18h-9.824zM124.925 64.182l-15.031 12.302-.446-12.386-9.342-.09.402 21.925h10.743l25.804-21.751h-12.13zM73.53 67.574c-1.928 1.328-4.186 3.055-4.77 3.602L52.31 85.99h8.868l2.731-2.657c1.32-1.213 4.38-2.496 7.468-2.496h.15c3.17.042 6.057.242 6.084.244l.49.035-2.206 4.874h7.596L93.79 64.134h-7.856c-5.23 0-10.66 2.24-12.402 3.44zm6.45 9.195h-8.99l3.7-3.527c.165-.146 3.82-3.35 5.513-4.345 1.097-.645 2.239-.781 3.004-.781.435 0 .713.044.725.047l.463.076-4.414 8.53zM156.282 64.134c-5.227 0-10.657 2.242-12.4 3.44-1.928 1.325-4.187 3.055-4.771 3.602l-16.45 14.815h8.869l2.731-2.657c1.319-1.213 4.38-2.496 7.47-2.496h.151c3.169.042 6.056.242 6.083.244l.49.035-2.206 4.874h7.596l10.298-21.857h-7.861zm-5.95 12.635h-8.99l3.699-3.527c.166-.146 3.82-3.35 5.514-4.345 1.097-.645 2.238-.781 3.003-.781.436 0 .716.044.726.047l.465.076-4.417 8.53zM176.724 80.754l-.077.02c-.027-.015-.696-.356-.884-1.053-.111-.418-.032-.835.238-1.273.04-.069 4.568-8.12 5.568-9.817 1.303-2.215 3.189-3.693 4.378-4.435H174.32c-.891 1.483-7.534 13.313-8.562 15.117-1.069 1.881-1.211 4.363.886 5.76 1.1.731 4.378.875 5.549.875h21.573l4.736-5.191h-21.778v-.003z" fill="#fff"/></svg>