<?xml version="1.0" encoding="utf-8"?><svg width="209" height="151" fill="none" xmlns="http://www.w3.org/2000/svg" viewBox="0 0 209 151"><path fill-rule="evenodd" clip-rule="evenodd" d="M100.372 37.578c20.449-1.927 38.646 13.31 40.558 33.93 1.877 20.603-13.226 38.938-33.676 40.846-20.449 1.928-38.664-13.309-40.558-33.911-1.895-20.604 13.227-38.956 33.676-40.865zm-1.626-23.34c33.193-3.08 62.793 21.683 65.887 55.127 3.056 33.481-21.522 63.306-54.715 66.385-33.212 3.115-62.83-21.648-65.887-55.11-3.093-33.463 21.485-63.287 54.715-66.402zm-.161-3.009c35.106-3.277 66.387 22.909 69.64 58.28 3.254 35.371-22.72 66.887-57.824 70.166-35.089 3.278-66.37-22.89-69.623-58.261-3.272-35.354 22.718-66.889 57.807-70.185zM118.55 97.1l-28.6-2.665c-2.449-.593-4.772.072-6.935 1.91-1.162.63-4.988.505-5.524-1.081-1.126-4.286-1.644-6.213-4.612-8.627-.893-1.026-.75-1.765.43-2.18l8.561.793c1.556.163 2.645.577 3.54 1.063l4.593 2.612c.393.252 2.037.414 2.091-1.315.197-4.755-1.787-10.158-5.54-14.372-1.162-1.261-2.825-2.342-4.612-3.35-1.43-.667-2.843-1.171-4.309-1.333-2.878-.198-4.54-.612-4.969-1.225-1.752-1.296.304-4.934 1.055-6.807.858-2.053 2.11-4.016 4.057-4.863 2.967.451 6.81 2.45 11.154 5.331 1.394.198 1.77-.324 1.019-1.584-3.038-2.828-10.332-5.26-10.188-6.862 1.251-2.954 5.29-5.367 8.293-7.24 2.127-1.387 4.54-2.34 6.203-2.072 1.86.631 5.04 4.629 9.706 10.933.894 1.243 2.414.162 1.733-1.207-.947-1.404-2.09-3.043-2.502-3.656-2.663-3.512-4.951-5.78-4.933-6.717.429-2 5.291-2.215 11.654-1.116 11.744 8.699 15.873 27.987 8.222 46.825-.25.648-.446 1.531-.428 2.233.017.757.447 1.098 1.269 1.117.75-.019 1.09-.18 1.359-.793-.019-.793-.163-1.296.286-2.017 3.163-.486 9.527 3.205 11.243 6.448-1.985 2.63-7.097 5.096-11.333 5.078-.465-.072-.805-.379-.93-.865l-.017-.99c-.07-.792-.375-1.261-1.036-1.406zm-8.83-19.576c2.77-.253 5.22 1.802 5.487 4.593a5.079 5.079 0 01-4.558 5.51c-2.752.253-5.202-1.8-5.451-4.591-.269-2.774 1.769-5.241 4.522-5.512zm43.704-23.088l-5.899.738 1.448 3.369 4.451-4.107zm2.753-4.269l2.626 5.854-13.692 12.355-1.859-5.133 2.861-2.557-2.127-5.06-3.844.161-2.199-4.754 18.234-.866zm-21.843-19.432l-4.754 7.078c2.43 2.035 4.469 3.368 6.97-.431 2.485-3.82.59-4.72-2.216-6.647zm-2.055-5.71l4.915 3.135c5.559 3.512 7.025 7.51 3.539 12.57-3.504 5.061-7.365 4.16-12.709.45l-4.648-3.223 8.903-12.931zm-33.266 1.387c-.126-5.673 3.915-8.807 8.991-8.572 5.076.234 9.546 1.459 9.688 7.87.161 6.376-3.683 8.502-9.242 8.591-5.559.09-9.294-2.233-9.437-7.889zm5.773-.917c-.375 4.556 1.537 5.547 3.343 5.547 1.841 0 3.378-1.009 3.826-4.935.392-3.71-1.593-5.277-3.486-5.187-2.914.125-3.521 2.648-3.683 4.575zm-32.908 2.593l4.362-2.665 3.593 6.07.821-8.357 5.291-2.143-1.269 8.464 8.33 5.385-5.22 2.071-7.418-4.466 3.808 6.376-4.487 2.773-7.81-13.508zM66.624 56.83c5.345-3.728 8.151-9.833 3.915-13.057-4.916-3.71-8.169 3.493-10.332 3.206-1.394-.18.107-3.476 3.057-6.07l-2.038-1.765c-6.238 4.845-7.507 11.274-2.824 13.4 3.754 1.71 7.757-4.936 8.687-4.575 3.253 1.28-2.324 6.376-3.128 6.862l2.663 1.999zm53.715 67.411c-2.932-3.548-1.86-8.339 1.823-10.247 2.217-1.135 5.559-1.045 7.293.666 2.002 2.017 2.735 6.213.287 8.969-1.842 2.071-7.384 3.062-9.403.612zm6.131-1.712c1.501-.755 1.251-2.934.733-4.232-.841-2.034-2.36-2.772-3.737-2.215-1.555.631-1.519 2.846-.858 4.305.644 1.458 2.235 2.917 3.862 2.142zm-19.77 7.079l-.536-8.627-2.986.144-.143-2.793 9.528-.431.161 2.774-2.807.143.501 8.627-3.718.163zm-19.877-14.75l3.843 1.17-1.715 6.088c-.287 1.026-.662 2.575.804 2.882 1.466.305 1.788-1.01 2.091-2.091l1.698-6.103 3.432.935-1.734 6.178c-.786 3.224-3.52 4.232-6.31 3.476-3.2-.829-4.736-3.081-3.824-6.358l1.715-6.177zm-9.831-3.583l-3.754 2.538 2.073 1.658 1.68-4.196zm-10.761 2.971l10.1-5.962 4.271 3.007-4.29 11.58-2.914-2.629.787-2.34-3.057-2.467-1.894 1.369-3.003-2.558zM53.45 44.764l2.27.018c.447-1.063 1.036-2.071 1.698-2.864l-.608-2.287c-.643.684-1.269 1.422-1.466 2.053l.518 1.008-1.322.108c-.536.63-.786 1.081-1.09 1.964z" fill="#fff"/></svg>