<?xml version="1.0" encoding="utf-8"?><svg width="174" height="150" fill="none" xmlns="http://www.w3.org/2000/svg" viewBox="0 0 174 150"><g clip-path="url(#ajclip0_0_2425)" fill-rule="evenodd" clip-rule="evenodd" fill="#fff"><path d="M56.937 74.585L69.413 57.01c.478-.69-.096-1.472-1.1-1.472l-9.63-.069c-.718 0-2.152.874-2.773 1.633l-4.35 5.452-6.046 7.614.047-13.159c0-.896-.98-1.472-1.577-1.472H32.941c-.765 0-1.458.276-1.481 1.633-.024 1.334 1.696 1.61 1.696 1.978V94.32c0 .667.956 1.679 1.626 1.679l9.464-.046c.67-.023 1.243-.943 1.243-1.565l.023-14.653 6.047 7.2 6.405 7.591c.525.599 1.553 1.427 2.63 1.427l10.276-.069c.98 0 .884-1.15.646-1.449a3152.086 3152.086 0 01-14.579-19.85zm35.467-19.046H81.482c-1.29 0-1.577.736-1.792 1.518.238 1.426 1.792 1.817 1.792 1.84V94.39c0 .944.598 1.565 1.435 1.565l3.92-.023 5.83-.046c1.076 0 1.362-.62 1.362-1.496V57.01c0-.896-.788-1.471-1.625-1.471z"/><path d="M125.643 37.416C114.027 34.587 100.955 33 87.14 33c-.096 0-.192.022-.31.022-12.523 0-24.474 1.335-35.277 3.704C21.223 43.396 0 58.302 0 75.53c0 17.23 21.224 32.134 51.552 38.804 10.803 2.37 22.753 3.703 35.277 3.703h.31c13.815 0 26.887-1.564 38.503-4.393 28.8-6.946 48.661-21.437 48.661-38.114.002-16.677-19.86-31.168-48.66-38.115zm0 66.96c-11.448 2.553-24.57 4.002-38.503 4.002-.096 0-.192-.022-.31-.022-12.62 0-24.593-1.22-35.277-3.359C24.81 99.637 6.358 88.436 6.358 75.532s18.45-24.106 45.195-29.466c10.684-2.14 22.657-3.359 35.277-3.381h.31c13.933 0 27.055 1.449 38.503 4.002 25.166 5.566 42.303 16.423 42.303 28.844 0 12.42-17.137 23.278-42.303 28.845z"/><path d="M133.18 57.06c-.357-.784-.979-1.519-1.793-1.519h-14.769c-.526 0-1.243.415-1.243 1.104-.024 2.024 2.176 1.956 2.056 2.254l-12.452 35.354c-.214.598.335 1.702 1.1 1.702l8.675-.07c.764 0 1.84-.62 2.151-1.517l4.111-11.868c1.386-3.957 2.774-7.913 4.135-11.87.072-.16.288-.252.502-.252.334 0 .693.114.764.345l8.055 23.784c.168.529 1.291 1.38 1.887 1.38l9.034.069c.526 0 1.148-1.013.981-1.472L133.18 57.059z"/></g><defs><clipPath id="ajclip0_0_2425"><path fill="#fff" d="M0 0h174v150H0z"/></clipPath></defs></svg>