<?xml version="1.0" encoding="utf-8"?><svg width="175" height="150" fill="none" xmlns="http://www.w3.org/2000/svg" viewBox="0 0 175 150"><path d="M132.706 61.214h-26.445a29.594 29.594 0 00-.136-1.729h13.563a.753.753 0 00.747-.746.753.753 0 00-.747-.746h-13.801c-1.904-8.849-9.79-15.495-19.206-15.495-9.415 0-17.301 6.646-19.17 15.495H53.47a.754.754 0 00-.747.746c0 .407.34.746.748.746h13.766c-.068.577-.136 1.153-.136 1.73H40.42a.754.754 0 00-.748.745c0 .407.34.746.748.746h26.683c.034.577.068 1.153.136 1.73H53.472a.754.754 0 00-.748.745c0 .407.34.746.748.746h14.004c1.802 8.917 9.722 15.664 19.206 15.664 9.483 0 17.403-6.747 19.205-15.664h13.767c.407 0 .747-.339.747-.746a.753.753 0 00-.747-.746h-13.529a29.59 29.59 0 00.136-1.729h26.445c.408 0 .748-.339.748-.746a.754.754 0 00-.748-.746zM86.682 80.1c-9.994 0-18.118-8.104-18.118-18.072s8.124-18.072 18.118-18.072c9.993 0 18.117 8.104 18.117 18.072S96.675 80.1 86.681 80.1z" fill="#fff"/><path d="M91.605 60.199c.85-4.035 1.496-6.95 1.496-6.95s.068-.374.544-.374v-.406H90.28v.406s.951.136.816.848l-.918 6.442c-.85-.034-2.21-.136-3.433-.44l-1.326-6.002s-.204-.814.714-.814v-.44h-4.08v.542c.273 0 .375.203.477.712l.917 5.12c-.612-.068-3.297-.61-3.297-4.137 0-4.848 5.847-5.594 7.104-5.594 1.054 0 8.226.068 8.226 6.035h.374c.612-1.83 1.53-4.78 1.53-4.78s-2.72-2.204-10.13-2.204c-9.28 0-10.979 6.204-10.979 7.696s.442 5.73 7.784 6.713c.102.475.204.916.272 1.357l1.87 10.375c-4.181-.136-8.26-1.899-9.11-7.222-.17-.034-.476 0-.646 0a364.665 364.665 0 01-1.462 5.866s4.25 2.61 12.237 2.61c7.989 0 11.354-5.459 11.354-8.815.102-3.018-1.156-5.154-6.969-6.544zm-1.835 3.018l-.884 6.17-1.428-6.51c.986.204 1.836.34 2.312.34zM88.478 74.27l2.516-10.748s3.84.746 3.84 4.713c0 5.153-6.356 6.035-6.356 6.035zM21.588 95.16c-7.24-.61-5.2-7.425.34-7.425 5.541 0 6.017 4.61 6.017 4.61l1.19-3.83s-1.802-1.9-7.139-1.9c-5.336 0-8.192 3.324-8.192 5.9 0 2.577 2.618 5.696 7.682 5.696 5.065 0 5.371 2.577 5.371 3.967 0 1.424-1.258 4.103-5.37 4.103-4.148 0-7.003-2.984-7.003-5.425-.68 1.933-1.461 4.611-1.461 4.611s2.617 2.034 8.395 2.034c5.779 0 8.736-3.763 8.736-6.815 0-3.39-1.87-4.984-8.566-5.526zM44.638 88.344s2.754-.34 1.53 3.119c-1.19 3.458-4.283 11.595-4.283 11.595L37.67 89.666s-.034-1.356 2.311-1.356v-.78h-8.498v.78s2.108-.34 2.686 1.254c.578 1.56 6.56 17.902 6.56 17.902h.374l6.73-17.63s.714-1.526 2.244-1.526v-.78h-5.473v.814h.034zM70.055 88.344v-.814h-6.017v.712h.952c1.326 0 1.631 1.424.918 2.644a1034.42 1034.42 0 01-3.604 6.171s-1.53-2.712-3.399-5.798c-1.87-3.051.306-2.814.306-2.814h1.156v-.915h-8.532v.712c1.938 0 2.277.983 2.277.983l5.575 9.324v6.273c0 2.136-2.685 1.729-2.685 1.729v.915h8.26v-.881c-2.414 0-2.652-1.696-2.652-1.696v-7.052s2.618-4.238 4.113-6.883c1.496-2.644 2.414-2.61 2.414-2.61h.918zM134.538 88.21h.952c1.325 0 1.631 1.425.918 2.645-.714 1.255-3.604 6.171-3.604 6.171s-1.529-2.712-3.399-5.798c-1.869-3.051.306-2.814.306-2.814h1.156v-.915h-8.532v.712c1.937 0 2.277.983 2.277.983l5.575 9.324v6.272c0 2.136-2.685 1.729-2.685 1.729v.916h8.26v-.882c-2.414 0-2.652-1.695-2.652-1.695v-7.052s2.618-4.238 4.113-6.883c1.496-2.645 2.414-2.61 2.414-2.61h.952v-.814h-6.017v.712h-.034zM86.585 93.09h.51s.238-4.78 3.399-4.78h2.413v16.342s0 2-2.243 2v.814h6.628v-.814s-2.073.204-2.073-2.17V88.276h2.753s2.958.373 2.958 4.441h.339V87.53H86.925l-.34 5.56zM115.303 88.31h.952s1.631.034 1.631 1.525v12.308l-10.299-14.58h-4.963v.848s2.617-.27 2.617 2.306v14.274s-.034 1.661-1.597 1.661h-1.02v.814h5.983v-.881h-.986s-1.53-.204-1.53-1.73V90.513l11.999 16.953h.612V89.768s.51-1.526 1.938-1.526h.646v-.712h-5.983v.78zM84.644 105.706l-6.867-18.207h-.883l-5.745 16.851s-.952 2.237-2.923 2.237v.882h5.846v-.882c-2.787 0-1.7-3.289-1.7-3.289l1.292-3.83h5.575s.578 1.661 1.19 3.152c1.733 4.442-1.904 3.967-1.904 3.967v.814h8.566v-.882c-2.107.068-2.447-.813-2.447-.813zM73.97 98.721l2.312-7.188 2.753 7.188H73.97zM160.281 88.307h.748v-.814h-8.328v.848h.85s1.767 0 1.767 1.865v6.578h-8.94V89.9s.102-1.696 1.768-1.696h.85v-.745h-7.92v.78h.883s1.496-.204 1.496 1.83v14.512s.034 1.966-1.835 1.966h-.816v.746h8.26v-.712h-.884s-1.802 0-1.802-2.068v-6.95h9.008v6.916s.068 2.136-1.869 2.136h-.85v.746h8.294v-.78h-.918s-1.802.034-1.802-2.305V90.138s.034-1.83 2.04-1.83z" fill="#fff"/></svg>