<?xml version="1.0" encoding="utf-8"?><svg width="246" height="151" fill="none" xmlns="http://www.w3.org/2000/svg" viewBox="0 0 246 151"><path fill-rule="evenodd" clip-rule="evenodd" d="M23 95.905h7.742v7.624h13.83v-7.624h7.645v21.397h-7.645v-9.009h-13.93v8.923H23V95.905zm30.086 0h7.544l7.933 8.23 7.836-8.23h7.448l-11.512 13.081v8.316h-7.641v-8.923L53.086 95.905zm31.729 0h7.642v16.546h12.285c1.935 0 3.192-1.729 3.192-3.551V95.905h7.641v17.067c0 2.685-3.385 4.244-5.321 4.244h-25.44V95.905zm32.404 0h25.443c2.999 0 5.417 1.644 5.417 4.983v16.371l-7.642.043v-12.994c0-1.817-.678-2.9-3.289-2.9h-11.511v15.942h-8.418V95.905zm33.183 0h22.246c4.452 0 7.887 3.204 7.887 5.673v9.834c-.049 1.731-2.759 5.889-6.143 5.889h-23.989V95.905h-.001zm7.786 16.634h11.742c1.691 0 2.998-1.126 2.998-2.515v-6.236c0-1.517-1.391-2.423-3.178-2.423h-11.562v11.174zm31.779-16.725h23.845v21.488h-8.515v-5.542h-14.656v5.542h-8.608v-13.95c-.194-4.676 4.451-7.538 7.934-7.538zm.577 7.63v3.462h14.706v-5.461h-12.385c-1.449.002-2.321.783-2.321 1.999zm24.814-7.582H223v22.09h-7.642v-22.09zm-91.893-61.91c-31.71 0-57.42 11.369-57.42 25.389s25.71 25.39 57.42 25.39c31.709 0 57.419-11.369 57.419-25.39-.001-14.02-25.711-25.389-57.419-25.389zm-5.447 5.65c6.554-2.074 26.025 0 33.588 3.254 2.42 2.08-10.793 8.76-26.526 11.655-22.493 4.063-11.803-11.475-7.062-14.908zm-38.63 30.084c-4.944-3.158-14.626-12.194 1.413-21.589 8.472-4.425 13.212-5.422 19.061-6.505 2.826-.544 4.842.09 2.321 1.988-5.346 4.969-16.44 21.407-17.448 25.023-.81 2.442-2.422 3.07-5.346 1.083zm46.193 10.482c-9.48.9-30.559-1.898-30.964-4.334.405-5.876 33.487-15.632 39.436-10.212 2.524 4.245-2.317 14.274-8.472 14.546zm48.214-17.079c-2.422 4.97-10.591 10.574-27.736 14.369-2.625.538-3.532-.906-1.818-2.261 2.826-1.535 16.443-21.95 18.156-26.018 1.01-2.08 2.925-1.263 4.137-.452 5.447 3.16 9.582 8.311 7.261 14.362z" fill="#fff"/></svg>