<?xml version="1.0" encoding="utf-8"?><svg width="142" height="150" fill="none" xmlns="http://www.w3.org/2000/svg" viewBox="0 0 142 150"><path d="M67.186 78.422h10.92v-3.623h-1.199c0 1.386-1.021 2.408-2.577 2.408h-1.681v-5.41h1.811V70.6l-7.274-.001v1.2h1.832l.003 5.41h-1.835v1.214zM83.203 78.418l4.21.004 3.571-6.624h1.792v-1.2h-5.387v1.2h1.556l-2.603 4.822-2.636-4.821 1.891-.001-.002-1.2H77.78l-.002 1.2h1.788l3.636 6.62zM45.815 70.598H38l-.002 1.2h1.789l3.635 6.62 4.21.004 3.572-6.624h1.79v-1.2h-5.387v1.2h1.556l-2.6 4.822-2.638-4.821 1.891-.001v-1.2zM61.442 74.505c-.025 1.408-.61 2.876-1.968 2.852-1.319-.025-1.899-1.477-1.874-2.92.026-1.494.744-2.797 1.98-2.776 1.236.022 1.888 1.349 1.862 2.844zm-7.46-.02c0 2.284 1.849 4.103 5.553 4.103 3.704 0 5.532-1.819 5.532-4.102 0-2.253-1.94-4.049-5.553-4.049s-5.532 1.796-5.532 4.049zM99.51 71.66c1.235.023 1.889 1.35 1.862 2.845-.026 1.408-.61 2.876-1.967 2.852-1.32-.025-1.9-1.477-1.875-2.92.025-1.494.744-2.797 1.98-2.776zm-5.598 2.826c0 2.283 1.848 4.102 5.552 4.102 3.705 0 5.532-1.819 5.532-4.102 0-2.253-1.939-4.049-5.552-4.049-3.613 0-5.532 1.796-5.532 4.049z" fill="#fff"/><path d="M108.041 49.716l-4.521 4.52A38.05 38.05 0 01109.647 75c0 21.112-17.115 38.227-38.227 38.227S33.193 96.112 33.193 75 50.308 36.773 71.42 36.773c7.675 0 14.82 2.263 20.808 6.156l4.52-4.519A44.288 44.288 0 0071.42 30.5c-24.577 0-44.5 19.923-44.5 44.5 0 24.576 19.923 44.5 44.5 44.5s44.5-19.924 44.5-44.5a44.294 44.294 0 00-7.879-25.284z" fill="#fff"/><path d="M93.75 32.293l-.002 1.25a47.449 47.449 0 017.594 5.13l-6.344 6.343a38.184 38.184 0 016.437 6.427l6.336-6.337a49.29 49.29 0 015.134 7.561l1.219.001V32.293H93.749z" fill="#fff"/></svg>