<?xml version="1.0" encoding="utf-8"?><svg width="179" height="151" fill="none" xmlns="http://www.w3.org/2000/svg" viewBox="0 0 179 151"><path d="M87.564 55.033c.01-.024.021-.051.012-.074-.01-.023-.036-.034-.06-.032-.025 0-.047.01-.07.02-.268.118-.543.18-.828.243-.29.065-.581.13-.878.165-.423.05-.85.057-1.275.08-.895.046-1.791.092-2.688.084a6.732 6.732 0 01-1.099-.118c-.177-.032-.368-.051-.54-.104-.153-.047-.318-.046-.479-.058-.046-.004-.092-.007-.135-.024-.121-.048-.182-.199-.149-.324a.375.375 0 01.165-.213c.09-.058.194-.05.3-.052.249-.006.497.013.745.023.923.038 1.845.083 2.768.115.204.007.276-.095.25-.32a31.461 31.461 0 01-.139-1.684c-.063-1.01.275-1.875 1.025-2.556.406-.37.845-.712 1.303-1.018.42-.283.69-.102.826.39.203.735.197 1.504.004 2.241-.188.722-.531 1.392-.906 2.033-.101.173-.193.353-.36.47l-.152.107a.264.264 0 00-.08.074c-.02.032-.024.075-.001.104.021.027.062.034.096.026.035-.008.065-.027.097-.044a.583.583 0 01.272-.057c.102-.002.206-.025.307-.04a31.167 31.167 0 001.886-.331c.424-.09.845-.19 1.263-.3.415-.11.82-.252 1.234-.362.317-.085.63-.167.938-.283.02-.008.04-.016.056-.03.034-.03.04-.082.026-.126-.014-.043-.042-.08-.068-.117-.222-.32-.31-.712-.372-1.089a4.22 4.22 0 01-.04-1.097c.076-.777.395-1.492.85-2.119.056-.079.12-.148.189-.218.056-.056.097-.124.153-.182.138-.143.284-.277.434-.405.307-.261.633-.499.955-.74.103-.077.206-.154.307-.233.287-.221.609-.042.779.357.292.686.244 1.408.161 2.12a3.92 3.92 0 01-.306 1.102c-.113.26-.234.518-.39.755-.168.252-.37.481-.564.716-.048.058-.096.116-.13.182-.008.016-.014.037-.001.048.005.005.013.007.021.008a.236.236 0 00.123-.038c.309-.161.601-.356.868-.58.195-.163.422-.28.626-.432.778-.575 1.529-1.187 2.293-1.78.17-.132.165-.268.16-.486a3.53 3.53 0 01.195-1.278c.277-.762.653-1.483 1.074-2.173.211-.345.433-.683.661-1.018.225-.33.437-.677.696-.982l.164-.187c.084-.095.169-.19.265-.274.125-.108.268-.194.421-.253a.23.23 0 01.109-.02.206.206 0 01.088.039c.287.19.468.503.606.817.129.292.251.608.305.925.057.335.058.676.106 1.012.142.989-.388 2.097-1.117 2.752-.167.15-.352.277-.539.402-.495.332-1.008.66-1.58.85-.237.079-.516.083-.733.2-.245.134-.443.336-.673.492-.165.113-.31.249-.466.374-.172.138-.341.28-.517.414l-.264.2c-.042.03-.17.123-.036.138.167.02.36-.008.526-.04.42-.076.837-.213 1.26-.24 1.229-.078 2.285.323 3.107 1.254.109.123.229.256.316.394.133.21.25.429.35.656.026.059.052.122.044.187a.285.285 0 01-.027.089 1.16 1.16 0 01-.119.216c-.209.297-.554.468-.897.588-.286.1-.605.212-.908.212-.315 0-.631-.05-.929-.151-.69-.235-1.383-.494-2.024-.837-.641-.345-1.232-.79-1.82-1.221-.212-.156-.353-.2-.575-.04-.64.46-1.324.86-2.038 1.197-.72.338-1.464.588-2.221.823-.206.065-.442.075-.656.105-.028.005-.061.013-.07.04-.012.033.024.063.056.079.074.035.153.056.232.08.206.06.41.128.61.204.096.036.195.094.294.115.075.016.147.027.222.051.293.094.572.23.825.404.472.326.843.776 1.112 1.278.25.467.418.98.51 1.5.02.116.037.231.049.347.045.436-.111.59-.555.652-2.257.322-4.086-1.008-4.95-2.846a2.88 2.88 0 01-.203-.685c-.02-.107-.03-.221-.058-.325-.03-.109-.053-.202-.01-.313zM117.182 97.598c-.452.006-.902.03-1.356.037l-3.6.066c-1.199.02-2.399.04-3.6.058-3.017.044-6.036.129-9.053.095-2.379-.025-4.756-.207-7.134-.314-1.01-.046-2.02-.063-3.03-.123-2.637-.156-5.272-.352-7.91-.487-2.185-.112-4.373-.2-6.56-.224-3.281-.037-6.564.024-9.846-.018-3.847-.05-7.694-.168-11.54-.252a358.644 358.644 0 00-4.436-.076 4.568 4.568 0 00-.908.097c-1.719.33-3.455.433-5.204.464-2.808.05-5.614.17-8.421.23-.759.017-1.52-.109-2.28-.101-1.257.013-2.515.08-3.772.128-.217.008-.433.023-.65.036-.144.008-.383.04-.51-.044a.323.323 0 01-.041-.035.346.346 0 01-.11-.172c-.046-.217.324-.315.484-.335a32.453 32.453 0 015.51-.26c.8.034 1.603.1 2.403.078 2.682-.073 5.363-.217 8.046-.26 1.711-.026 3.382-.37 5.075-.495 1.444-.105 2.902-.031 4.353-.016 1.038.01 2.076.064 3.114.082 2.173.036 4.347.065 6.52.09 3.654.042 7.31.058 10.963.123 2.615.046 5.231.118 7.845.245 2.985.145 5.965.381 8.95.543 1.949.107 3.906.088 5.851.239 3.418.264 6.838.165 10.256.128 6.368-.069 12.736-.189 19.105-.276 4.25-.058 8.501-.066 12.751-.15 2.392-.048 4.784-.194 7.175-.314 1.464-.074 2.926-.177 4.389-.279.482-.032.963-.095 1.443-.152.235-.028.472-.041.535.243.069.31-.165.42-.409.459-.383.06-.769.104-1.156.128-2.181.13-4.365.23-6.546.383-5.241.368-10.49.184-15.735.262-.78.012-1.561.027-2.342.045-1.2.027-2.401.061-3.601.097l-1.801.054-.9.027-.451.014c-.133.004-.251-.014-.381-.02l-.795-.037c-.23-.011-.461-.013-.69-.01zM29.273 55.084a.21.21 0 01-.046-.03c-.059-.052-.074-.138-.071-.217 0-.038.005-.075.012-.112.026-.126.278-.124.377-.126 1.354-.02 2.709-.096 4.054.163 2.478.48 4.988.238 7.485.297 1.743.04 3.487.085 5.23.07 1.991-.02 3.982-.14 5.972-.143.851-.003 1.7.218 2.554.263 1.104.059 2.213.023 3.318.065 1.738.068 3.474.203 5.212.237 1.157.023 2.317-.078 3.475-.128.773-.035 1.545-.093 2.318-.114.72-.02 1.441.012 2.161-.011.369-.012.734-.12 1.104-.142.284-.016.569-.022.853-.015.142.003.284.01.425.02.112.01.21.027.266.139a.52.52 0 01.038.245.281.281 0 01-.035.146.222.222 0 01-.095.074c-.181.082-.356.025-.542.017-.192-.007-.385-.028-.576-.014-.866.064-1.73.15-2.596.205-1.211.079-2.424.17-3.638.194-1.255.025-2.512-.008-3.767-.042-1.478-.04-2.956-.136-4.434-.154-1.436-.017-2.869.113-4.303-.168-.806-.16-1.654-.163-2.481-.154-2.656.03-5.31.13-7.967.14-2.144.01-4.291-.142-6.434-.09-1.484.035-2.9-.305-4.35-.45-.2-.02-.4-.037-.6-.05-.447-.03-.894-.048-1.34-.06-.225-.007-.448-.012-.672-.017-.21-.005-.426-.028-.635-.022-.055.001-.11.009-.165.007a.311.311 0 01-.107-.023zM106.004 54.943a.25.25 0 01.073-.075c.218-.15.541-.103.79-.109l.891-.023c.899-.023 1.799-.049 2.699-.063.899-.015 1.798-.02 2.697-.003 1.067.02 2.129.304 3.193.46.341.049.686.093 1.03.1 1.702.036 3.406.116 5.106.071 2.141-.056 4.278-.238 6.419-.326a69.858 69.858 0 013.943-.037c1.194.019 2.371-.019 3.542-.304.398-.097.803-.156 1.206-.23.203-.037.406-.078.607-.13.191-.05.374-.11.564-.17.201-.062.403-.124.611-.161.206-.036.414-.032.623-.038.451-.012.901-.026 1.352-.04.9-.027 1.801-.052 2.702-.067.451-.008.901-.012 1.352-.014.359-.001.713.076 1.059.164.174.044.347.096.522.136a.78.78 0 01.385.184c.09.083.161.209.123.325-.033.1-.134.16-.231.196-.151.056-.35.101-.507.05-.177-.057-.352-.117-.529-.17-.346-.102-.703-.185-1.066-.187a71.2 71.2 0 00-1.16.006c-.899.011-1.798.036-2.697.064l-.675.02c-.214.005-.436.026-.648.011-.395-.029-.75.188-1.128.264-.384.077-.761.185-1.149.253-.396.069-.795.126-1.185.224-1.101.275-2.214.322-3.333.324-1.163.002-2.328-.058-3.488-.015-1.27.046-2.535.229-3.805.264-2.074.059-4.151.063-6.226.056a36.258 36.258 0 01-3.274-.135c-.807-.077-1.596-.374-2.403-.423-1.656-.103-3.316-.108-4.975-.147l-.486-.008c-.45-.006-.899-.01-1.349-.017-.186-.003-.383.015-.565-.012-.177-.026-.377.024-.539-.069-.043-.025-.082-.062-.09-.11a.133.133 0 01.019-.09zM139.183 69.944a.229.229 0 00-.15.133c-.033.074-.036.157-.039.239-.008.27-.017.54-.024.811-.009.263-.107.488-.162.743a66.334 66.334 0 01-.634 2.647 64.094 64.094 0 01-1.535 5.004c-.086.244-.165.495-.264.733-.069.165-.222.41-.108.589.155.242.874.065 1.107.049l1.379-.098.996-.068.739-.05c.215-.016.501.039.691-.066a.386.386 0 00.1-.08c.156-.186.05-.543.01-.753-.058-.302-.117-.603-.174-.905l-1.45-7.508-.135-.7c-.035-.187-.035-.467-.147-.627a.208.208 0 00-.166-.098.141.141 0 00-.034.005zm8.253 20.973a1.933 1.933 0 01-.211.753c-.262.494-.874.824-1.417.868-.965.08-1.735-.408-2.034-1.35a26.825 26.825 0 01-.581-2.161 36.467 36.467 0 01-.658-3.76c-.03-.246.004-.767-.246-.914-.204-.12-.587-.033-.809-.018l-.939.06c-.623.038-1.247.073-1.872.093a15.983 15.983 0 01-1.987-.069 24.587 24.587 0 01-1.01-.118c-.252-.035-.569-.173-.79.01-.175.143-.135.353-.201.545-.09.263-.189.522-.284.782l-.553 1.527c-.369 1.018-.74 2.036-1.113 3.052a8.78 8.78 0 01-.479 1.09c-.211.396-.556.639-1.005.73-.336.07-.768.014-1.048-.2-.209-.158-.515-.445-.635-.681a1.011 1.011 0 01-.094-.424c-.019-.47.107-.931.233-1.384.45-1.62 1.04-3.2 1.585-4.792.817-2.384 1.632-4.767 2.443-7.154a42.805 42.805 0 001.675-6.767 96.75 96.75 0 011.342-6.728c.144-.6.367-1.187.616-1.753.336-.767.936-1.252 1.778-1.401a1.984 1.984 0 012.082.977c.126.227.222.476.289.727.78 2.933 1.432 5.895 2.01 8.874.466 2.398.944 4.793 1.457 7.18.147.688.434 1.345.663 2.015.09.266.187.53.296.79.226.533.315 1.095.379 1.666.126 1.12.193 2.275.396 3.382l.627 3.427c.069.372.124.754.095 1.126zM44.796 69.442c.007 1.416.054 2.83.125 4.247.034.677.124 1.351.204 2.025.095.799.211 1.595.312 2.393.126 1 .245 2.002.367 3.003.148 1.212.31 2.423.44 3.637a23.4 23.4 0 00.308 2.05c.068.343.144.686.23 1.027.063.252.092.697.308.867a.86.86 0 00.249.127.45.45 0 00.21.036c.253-.035.33-.38.436-.567.16-.284.29-.586.343-.909.154-.921.208-1.85.23-2.78.021-.845.02-1.69.056-2.533.065-1.52.152-3.041.228-4.562.046-.9.085-1.802.135-2.703.077-1.384.181-2.766.104-4.156-.08-1.424-.127-2.849-.189-4.274-.017-.397-.032-.794-.055-1.191-.035-.636-.254-1.167-.85-1.494-.294-.16-.558-.176-.846.018a2.675 2.675 0 01-1.22.456c-.124.014-.247.05-.37.08-.208.048-.358.174-.404.378-.109.482-.26.963-.285 1.45l-.01.225c-.044 1.05-.061 2.1-.056 3.15zm2.23 23.081a3.784 3.784 0 01-1.487-.464 3.67 3.67 0 01-1.46-1.497c-.339-.652-.524-1.354-.674-2.067a55.64 55.64 0 01-.769-4.764c-.196-1.606-.388-3.214-.59-4.82-.11-.874-.254-1.745-.356-2.62-.09-.78-.18-1.564-.202-2.347a141.512 141.512 0 01-.057-4.858c.006-.988.024-1.978.157-2.962.109-.808.25-1.61.488-2.39.395-1.291 1.248-2.188 2.467-2.76.234-.11.46-.25.668-.406a3.926 3.926 0 012.38-.823c.448-.002.9.042 1.324.181.662.217 1.063.735 1.638 1.09.917.564 1.446 1.4 1.66 2.429.133.644.217 1.3.29 1.954.236 2.162.292 4.333.282 6.506-.004.804-.071 1.607-.114 2.411-.05.91-.106 1.82-.155 2.73-.094 1.742-.191 3.484-.276 5.228-.038.794-.052 1.59-.07 2.384-.02.844-.043 1.687-.183 2.521a9.332 9.332 0 01-1.581 3.843c-.773 1.106-2.097 1.625-3.38 1.501zM30.492 84.532c-.09.087-.041.282-.041.414-.002 1.26 0 2.523-.006 3.784 0 .164.078.21.223.24 1.074.215 2.001-.33 2.3-1.38.28-.987-.016-1.856-.6-2.65-.184-.25-.46-.376-.772-.427-.322-.053-.644-.025-.967-.026-.064 0-.109.017-.137.045zm-3.36-17.896c.022-.968.13-1.933.209-2.9.032-.395.078-.79.133-1.184.084-.6.42-1 1.017-1.136.5-.115 1.008-.22 1.52-.278 1.834-.209 3.679-.116 5.52-.105.266.002.543.067.796.158.81.292 1.27 1.05 1.184 1.9a1.833 1.833 0 01-1.582 1.63 4.26 4.26 0 01-.582.043c-1.521.002-3.041-.001-4.562-.003-.156 0-.296-.014-.364.165-.076.195.002.52-.002.742a384.74 384.74 0 00-.02 2.162c-.008 1.335-.013 2.67-.016 4.005-.003 1.413-.005 2.826-.003 4.24.001 1.112.003 2.225.012 3.336.001.155-.003.311-.004.466 0 .195-.086.52-.003.695.128.269.765.156 1.003.138a4.353 4.353 0 011.505.134c.672.19 1.25.542 1.74 1.028 1.054 1.046 1.777 2.28 2.045 3.749.213 1.165.037 2.293-.38 3.396-.74 1.963-2.192 3.04-4.226 3.422-.893.167-1.785.114-2.679.028-.252-.024-.506-.04-.753-.09-.675-.135-1.31-.59-1.541-1.254-.113-.321-.063-.63-.079-.958a20.743 20.743 0 01-.021-.912V81.68c0-2.526.079-12.678.132-15.044zM120.799 88.846c.191.18.61.09.84.09.296 0 .941.14 1.128-.148.142-.217.087-.481.088-.725l.004-.945.007-1.893.014-3.783c.01-2.521.019-5.044.022-7.566.002-.832.002-1.664.002-2.497.001-1.22-.095-2.442-.156-3.662-.073-1.453-.174-2.906-.12-4.363.016-.416.054-.832.107-1.245.06-.468.322-.806.761-.992a3.861 3.861 0 011.596-.293c.324.007.544.19.711.447.261.4.372.854.418 1.319.051.511.085 1.024.104 1.538.051 1.347.113 2.695.13 4.044.038 3.075.065 6.15.072 9.226.002 1.047-.063 2.094-.108 3.14a26.35 26.35 0 00.072 3.664c.054.56.087 1.121.127 1.682.086 1.22.173 2.439.253 3.658.017.251.014.505-.001.756-.037.628-.324 1.107-.891 1.407-.545.29-1.126.48-1.729.606a10.94 10.94 0 01-2.352.23 408.034 408.034 0 01-4.241-.073c-1.412-.03-2.826-.066-4.238-.104-.556-.016-1.112-.035-1.654-.168a2.95 2.95 0 01-.445-.14c-.645-.27-1.012-.76-1.048-1.45a41.041 41.041 0 01-.046-2.328c.018-5.298.037-10.596.067-15.894.015-2.493.057-4.987.079-7.48.007-.73.076-1.452.199-2.17a1.93 1.93 0 01.297-.784c.346-.505.822-.77 1.443-.707.605.062 1.033.397 1.257.953.103.257.163.541.185.818.059.734.124 1.47.123 2.206-.009 5.832-.033 11.663-.052 17.495-.004 1.154-.025 2.31-.003 3.464.011.538.033 1.076.06 1.615l.04.788c.011.219-.053.424.056.63.205.387.822.03 1.143-.062.495-.141.989-.283 1.483-.426.336-.098.441-.23.455-.583.039-.999.088-1.997.108-2.996.073-3.629.135-7.256.201-10.885.036-1.988.075-3.977.109-5.966.021-1.175.105-2.344.34-3.498.016-.076.032-.152.053-.226.176-.61.564-.933 1.164-.97.611-.038 1.15.282 1.361.851.12.325.21.668.262 1.01.069.46.119.926.123 1.389.05 5.026.084 10.052.131 15.078.011 1.108-.078 2.208-.159 3.311-.042.58-.031 1.164-.036 1.746-.002.301-.003.603-.002.904 0 .257-.092.644.028.878.015.03.035.057.058.079zM73.637 88.715c.107.123.285.113.467.107.32-.012.64-.022.96-.046.748-.057 1.498-.104 2.241-.2 1.06-.136 2.116-.314 3.174-.47.183-.028.754.012.843-.185a.29.29 0 00.016-.133c-.033-.643-.242-1.327-.377-1.96a29.759 29.759 0 00-.493-1.991c-.716-2.478-1.142-5.007-1.4-7.568-.093-.931-.188-1.865-.35-2.786a32.004 32.004 0 00-.323-1.561l-.179-.778c-.046-.196-.06-.443-.131-.627-.03-.076-.1-.141-.182-.138-.077.005-.14.07-.164.144-.047.138-.035.31-.07.456l-.13.528-.27 1.095-.54 2.188c-.62 2.515-1.24 5.03-1.852 7.548-.435 1.789-.943 3.562-1.206 5.39-.038.262-.18.565-.112.83.017.068.044.12.078.157zm-3.112-.02a.204.204 0 00.03-.096c.015-.162-.031-.318-.055-.476-.022-.144.004-.247.015-.383.026-.343-.022-.7-.007-1.046.03-.673.127-1.342.28-1.998.673-2.88 1.378-5.752 2.074-8.627.459-1.898.945-3.789 1.376-5.692.268-1.185.44-2.39.683-3.581.302-1.473.631-2.94.957-4.409.044-.202.121-.401.207-.59.591-1.31 2.075-1.312 2.882-.678.401.315.653.726.783 1.21.21.79.395 1.586.613 2.372.37 1.335.736 2.67 1.141 3.994a38.387 38.387 0 011.365 6.3c.157 1.215.261 2.438.447 3.648.15.983.356 1.96.59 2.927.392 1.627.774 3.256 1.027 4.912.066.433.109.87.176 1.302.072.461.228.593.686.639.398.039.796.082 1.192.14 1.012.146 1.717.995 1.658 1.985-.055.935-.793 1.651-1.734 1.63-.578-.012-1.157-.081-1.732-.15a25.566 25.566 0 00-3.598-.165c-1.065.024-2.115.188-3.16.365-1.48.25-2.967.307-4.46.256a261.538 261.538 0 01-4.504-.192 3.963 3.963 0 01-.937-.185c-.656-.2-1.153-.802-1.121-1.626.032-.793.535-1.39 1.306-1.538.542-.173 1.15-.064 1.696-.187.042-.01.088-.02.117-.053l.007-.008zM100.077 78.658a.174.174 0 00.019-.03.354.354 0 00.022-.183c-.027-.469-.17-.945-.263-1.405-.5-2.466-1-4.932-1.503-7.398-.021-.103.014-.26-.162-.26-.176-.003-.144.152-.164.256a14103.532 14103.532 0 00-1.653 8.313c-.035.178-.199.546-.102.71.115.194.57.081.76.081h1.992c.283 0 .621.054.898.003a.258.258 0 00.156-.087zm.561 3.386c-.19-.136-.465-.102-.688-.109-.27-.008-.541-.012-.812-.016-.382-.005-.764 0-1.146-.012-.452-.014-.904-.03-1.356-.043-.31-.01-.824-.142-1.098.047-.135.092-.127.328-.164.47-.64 2.44-1.306 4.873-1.963 7.31a31.18 31.18 0 01-.408 1.364c-.055.173-.13.347-.226.501-.383.621-1.057.851-1.749.611-.419-.144-.682-.433-.803-.855-.189-.656-.227-1.313-.047-1.98.253-.935.513-1.87.734-2.813a351.99 351.99 0 001.342-5.897 636.37 636.37 0 001.559-7.427c.28-1.367.51-2.744.787-4.113a39.043 39.043 0 012.047-6.875c.093-.232.204-.465.348-.668.441-.624 1.062-.875 1.81-.745.73.127 1.215.569 1.401 1.281.205.788.362 1.587.548 2.38.501 2.132 1.001 4.264 1.513 6.395a93.59 93.59 0 011.155 5.698c.459 2.626.916 5.251 1.402 7.872.313 1.686.676 3.363 1.017 5.045.103.508.12 1.02.065 1.534-.086.794-.568 1.254-1.304 1.469-.937.274-2.062-.207-2.276-1.373-.047-.257-.109-.512-.16-.768-.306-1.53-.625-3.058-.91-4.592-.179-.972-.305-1.953-.455-2.93-.024-.15-.067-.31-.071-.462-.004-.113.05-.178-.058-.272a.37.37 0 00-.034-.027zM63.598 64.611a.66.66 0 00-.168.22c-.16.317-.129.711-.18 1.057-.29 1.921-.59 3.841-.865 5.765a58.738 58.738 0 00-.391 3.247c-.256 2.982-.168 5.971-.18 8.958-.004.973-.023 1.946.002 2.918.03 1.18.101 2.359.154 3.539.02.466-.063.912-.31 1.313-.398.65-.985.983-1.752.91-.83-.08-1.463-.623-1.66-1.413-.095-.383-.135-.781-.181-1.175-.1-.84-.125-1.681-.123-2.526.008-2.253-.007-4.506.013-6.759.013-1.409.036-2.82.122-4.226.077-1.265.23-2.528.377-3.788.15-1.26.327-2.518.506-3.775.158-1.119.33-2.236.503-3.353.143-.921.296-1.84.446-2.76.013-.078.035-.155.05-.233.158-.872.73-1.528 1.919-1.57.618-.023 1.236-.033 1.854-.054 1.714-.058 3.428-.118 5.142-.18.35-.013.698-.004 1.033.112 1.351.467 1.582 2.054.817 2.953-.268.315-.607.517-1.025.55-.735.058-1.471.123-2.208.147-.886.029-1.775.025-2.662.021-.418-.002-.918-.162-1.233.102zM30.7 107.502c0 .177.148.251.327.251.172 0 .317-.074.317-.251-.007-2.074-.129-4.701-.129-4.735-.01-.138-.067-.235-.261-.242-.197 0-.277.049-.342.17-.016.04-.415.786-.83 2.091-.433-1.337-.807-2.058-.825-2.1-.065-.128-.171-.17-.365-.161a.249.249 0 00-.238.242c0 .025-.138 2.677-.145 4.735-.01.088.058.251.318.251.259 0 .317-.163.317-.251.009-1.071.048-2.344.08-3.251.164.437.36.891.538 1.533.058.186.17.243.32.243.154 0 .25-.05.308-.236.178-.649.374-1.103.545-1.54.032.901.065 2.171.065 3.251zm3.064.308c.425 0 .986-.17 1.254-1.013.163-.519.19-1.176.19-1.809 0-.721-.084-1.273-.255-1.67-.293-.712-.806-.859-1.189-.859-.284 0-.538.089-.748.269-.18.144-.335.356-.44.622-.172.414-.252.965-.252 1.638 0 .658.023 1.331.194 1.848.099.301.237.529.431.69.221.195.5.284.815.284zm0-4.717c.187 0 .432.055.603.468.131.318.196.796.196 1.427 0 .584-.016 1.177-.155 1.613-.164.504-.415.578-.644.578-.594 0-.799-.578-.799-2.191 0-.583.067-1.07.205-1.394.178-.446.433-.501.594-.501zm5.155 4.416c-.009-.382-.041-1.693-.048-2.546-.01-1.232.007-2.065.007-2.123a.323.323 0 00-.326-.315h-1.865c-.155 0-.316.088-.316.373 0 .195.048 2.219.032 3.168-.016.77-.22.94-.458 1.29-.103.153-.006.307.1.381.122.08.333.089.439-.048.27-.35.554-.683.563-1.623.007-.956-.016-2.472-.026-2.909h1.215c-.01.479-.01 1.191-.01 1.703-.015.494.059 2.617.059 2.659 0 .087.097.243.341.234.245 0 .293-.154.293-.244zm2.54.301c.426 0 .986-.17 1.254-1.013.164-.519.19-1.176.19-1.809 0-.721-.084-1.273-.254-1.67-.294-.712-.807-.859-1.19-.859a1.12 1.12 0 00-.748.269c-.18.144-.334.356-.44.622-.172.414-.252.965-.252 1.638 0 .658.023 1.331.193 1.848.1.301.239.529.433.69.221.195.498.284.814.284zm0-4.717c.187 0 .432.055.603.468.132.318.197.796.197 1.427 0 .584-.017 1.177-.155 1.613-.164.504-.416.578-.645.578-.593 0-.798-.578-.798-2.191 0-.583.067-1.07.205-1.394.178-.446.432-.501.593-.501zm4.438-.568c-.194 0-.316.12-.325.251-.016.324-.016 1.257-.016 1.93-.471-.009-.806-.041-.938-.172-.097-.097-.145-.315-.13-.696.017-.763.017-.933.017-1.03.01-.163-.096-.292-.319-.292-.194 0-.316.122-.325.251-.007.236-.007.496-.016 1.013-.007.276.009.487.048.673.051.219.132.391.27.526.146.157.352.253.629.311.194.032.422.048.757.048.007 1.11.016 2.155.016 2.164.007.177.072.251.316.251.245 0 .325-.097.32-.276 0-.007-.01-1.28-.01-2.514 0-1.232.015-1.937.025-2.146.007-.163-.097-.292-.319-.292zm4.196 2.438c0-1.232.01-2.18.01-2.187.006-.179-.133-.251-.31-.26-.18 0-.326.074-.326.244 0 .007-.01.843-.01 1.937l-1.27.048c-.008-1.126-.057-1.978-.057-1.985-.009-.179-.154-.244-.325-.235-.18.007-.319.088-.31.267 0 .009.049.949.049 2.171 0 1.234-.048 2.539-.048 2.556 0 .087.073.234.325.234.245 0 .318-.129.318-.211 0-.016.04-1.069.049-2.156l1.27-.048c0 1.1.016 2.171.016 2.181 0 .087.097.243.342.234.244 0 .293-.154.293-.244 0-.007-.007-1.305-.016-2.546zm1.582-2.438c-.277.016-.302.161-.293.315.023.356.039 1.331.048 2.123 0 1.234-.048 2.232-.048 2.457 0 .089.032.17.09.236a.364.364 0 00.235.097l.725.009c.49.007.944-.057 1.237-.349.261-.253.374-.674.374-1.241 0-.478-.087-.834-.373-1.119-.294-.299-.764-.414-1.605-.414 0-.671-.032-1.53-.049-1.863-.009-.113-.08-.267-.341-.251zm.358 4.596c.016-.382.032-1.135.032-1.85.62-.007.986.073 1.166.243.072.075.178.261.178.658 0 .372-.065.664-.187.786-.178.179-.554.169-1.19.163zm2.907.632c.18 0 .318-.081.318-.26v-4.733c0-.179-.146-.244-.325-.244-.171 0-.319.065-.319.244l.01 4.733c0 .179.138.26.316.26zm3.525-.664h-.006l-1.28.016c.017-.391.033-1.087.033-1.825l.847-.016c.17 0 .235-.147.235-.324-.007-.179-.071-.317-.251-.317l-.831.016c0-.638-.016-1.167-.032-1.482.643 0 1.166-.025 1.172-.025.172 0 .236-.145.23-.324-.01-.179-.082-.317-.255-.308-.007 0-.707.025-1.482.025a.295.295 0 00-.226.097.286.286 0 00-.09.234c0 .009.038.885.048 2.107 0 1.234-.042 2.441-.049 2.457 0 .089.032.17.097.236.065.065.148.088.287.097.226 0 1.553-.032 1.553-.032.18 0 .27-.147.262-.324 0-.17-.088-.308-.262-.308zm4.067-4.191c.007.291.048 1.215.04 2.065-.008 1.234-.04 2.507-.04 2.514-.01.179.074.276.316.276.245 0 .31-.074.319-.251 0-.009.106-2.01.026-4.345h1.276c-.007.479-.007 1.191-.007 1.703-.016.494.058 2.617.058 2.659 0 .087.097.243.342.234.245 0 .293-.154.293-.244-.01-.382-.041-1.693-.049-2.546-.009-1.232.008-2.065.008-2.123a.323.323 0 00-.327-.315h-1.939c-.154 0-.325.088-.316.373zm4.21 4.855c.244 0 .309-.074.318-.251 0-.009.041-1.054.048-2.164.335 0 .564-.016.758-.048.277-.058.48-.154.628-.311.138-.135.219-.307.267-.526.042-.186.058-.397.049-.68a1.388 1.388 0 00-.194-.722 1.056 1.056 0 00-.49-.406c-.34-.136-.747-.129-1.14-.12h-.252c-.08 0-.17.033-.228.097a.363.363 0 00-.09.234c0 .009.049.875.049 2.107 0 1.234-.04 2.507-.04 2.514-.009.179.074.276.316.276zm.327-4.596c.3-.009.61-.009.806.081.139.057.284.163.293.551.016.405-.032.641-.131.745-.13.131-.465.163-.936.172 0-.673-.016-1.225-.032-1.549zm4.046 4.653c.424 0 .986-.17 1.254-1.013.163-.519.189-1.176.189-1.809 0-.721-.083-1.273-.254-1.67-.294-.712-.806-.859-1.19-.859a1.12 1.12 0 00-.747.269c-.18.144-.336.356-.442.622-.17.414-.251.965-.251 1.638 0 .658.023 1.331.194 1.848.099.301.238.529.431.69.222.195.5.284.816.284zm0-4.717c.187 0 .431.055.602.468.132.318.197.796.197 1.427 0 .584-.017 1.177-.156 1.613-.163.504-.415.578-.643.578-.594 0-.8-.578-.8-2.191 0-.583.068-1.07.206-1.394.178-.446.432-.501.594-.501zm5.107 5.259c0 .179.138.276.316.276.18 0 .318-.097.318-.276v-.916a.318.318 0 00-.325-.315h-.113c-.01-.43-.019-1.273-.019-2.149 0-1.231.01-2.067.01-2.123a.326.326 0 00-.326-.317h-1.866c-.155 0-.318.09-.318.373 0 .195.05 2.221.034 3.17-.009.6-.205.866-.367 1.046h-.187a.324.324 0 00-.318.292v.939c0 .179.138.276.318.276.178 0 .316-.097.316-.276v-.599h2.527v.599zm-.464-3.485c-.01.754.006 1.718.015 2.254h-1.459c.122-.17.255-.462.262-1.046.016-.958-.017-2.472-.024-2.911h1.212c-.006.478-.006 1.193-.006 1.703zm4.095-2.319c-.17-.048-.325-.023-.374.147 0 .007-.228.802-.602 1.88a7.603 7.603 0 01-.334-.705 8.37 8.37 0 01-.384-1.184c-.04-.17-.213-.195-.383-.161-.171.04-.284.129-.243.299 0 .025.139.616.413 1.289.206.494.522 1.045.645 1.248-.332.933-.668 1.808-.732 2.011-.067.195.023.307.194.365.18.048.325.048.409-.147.07-.193.52-1.418.895-2.448a32.95 32.95 0 00.742-2.277c.032-.17-.075-.275-.246-.317zm3.559 5.196c.228-.032.26-.17.228-.308-.057-.267-.187-.899-.595-1.815a6.305 6.305 0 00-.53-.956c.117-.113.22-.235.31-.366.48-.648.686-1.385.693-1.418.041-.17-.09-.284-.26-.333-.171-.039-.317.01-.368.18 0 .007-.177.647-.577 1.199-.187.244-.441.487-.66.673-.007-1.045-.04-1.824-.049-1.833-.009-.177-.154-.251-.334-.242-.171.007-.31.097-.3.276 0 .007.048.94.048 2.162 0 1.234-.049 2.523-.049 2.53 0 .09.023.26.317.26.302 0 .318-.147.327-.234 0-.01.04-1.03.04-2.1.099-.065.235-.18.392-.309.104.161.251.414.413.77.384.85.5 1.476.564 1.687.04.154.154.211.39.177zm3.835-4.943c-.016-.179-.087-.31-.258-.292-.01 0-.416.039-1.208.049-.806.007-.928 0-1.173 0-.235 0-.258.153-.258.323 0 .177.08.315.258.315h.89c-.01.343-.01.959-.01 1.767 0 1.241.019 2.539.019 2.546 0 .09.064.244.316.244.26 0 .318-.163.318-.244 0-.016-.009-1.305-.009-2.546-.007-.808 0-1.443 0-1.774.595-.016.895-.041.912-.041.18-.016.222-.177.204-.347zm1.208-.276c-.277.016-.302.161-.293.315.023.356.04 1.331.048 2.123 0 1.234-.048 2.232-.048 2.457 0 .089.032.17.09.236a.363.363 0 00.235.097l.726.009c.489.007.944-.057 1.237-.349.26-.253.374-.674.374-1.241 0-.478-.087-.834-.374-1.119-.293-.299-.764-.414-1.605-.414 0-.671-.032-1.53-.048-1.863-.01-.113-.081-.267-.342-.251zm.358 4.596a51.14 51.14 0 00.032-1.85c.62-.007.986.073 1.166.243.072.075.178.261.178.658 0 .372-.065.664-.187.786-.178.179-.554.169-1.19.163zm2.907.632c.18 0 .318-.081.318-.26v-4.733c0-.179-.145-.244-.325-.244-.171 0-.319.065-.319.244l.01 4.733c0 .179.138.26.316.26zm5.668.057c.506 0 .89-.204 1.141-.615.097-.148.01-.286-.138-.375-.155-.097-.31-.106-.407.041-.131.218-.309.318-.596.318-.593 0-.798-.578-.798-2.191 0-.583.067-1.07.205-1.394.178-.446.432-.501.593-.501.255 0 .352.071.481.241.115.138.26.115.4 0 .138-.106.219-.259.105-.397a1.285 1.285 0 00-.399-.347 1.191 1.191 0 00-.587-.131 1.12 1.12 0 00-.747.269 1.5 1.5 0 00-.441.622c-.17.414-.252.965-.252 1.638 0 .658.023 1.331.194 1.848.1.301.238.529.432.69.221.195.498.284.814.284zm3.324 0c.424 0 .986-.17 1.253-1.013.164-.519.19-1.176.19-1.809 0-.721-.083-1.273-.254-1.67-.293-.712-.806-.859-1.189-.859-.284 0-.538.089-.748.269a1.51 1.51 0 00-.442.622c-.17.414-.251.965-.251 1.638 0 .658.023 1.331.194 1.848.1.301.238.529.431.69.222.195.499.284.816.284zm0-4.717c.187 0 .431.055.602.468.132.318.197.796.197 1.427 0 .584-.016 1.177-.156 1.613-.163.504-.415.578-.643.578-.594 0-.799-.578-.799-2.191 0-.583.067-1.07.205-1.394.178-.446.432-.501.594-.501zm6.41 4.669c.18 0 .341-.009.496-.025.325-.042.564-.147.741-.324.261-.253.374-.632.374-1.2 0-.478-.12-.836-.374-1.077a.829.829 0 00-.213-.157c.133-.135.223-.307.271-.526.039-.186.049-.397.039-.68-.007-.292-.064-.526-.187-.722a1.065 1.065 0 00-.496-.406c-.342-.136-.741-.129-1.131-.12h-.255a.296.296 0 00-.226.097.287.287 0 00-.09.234c0 .009.039.875.048 2.107a56.36 56.36 0 01-.048 2.457c0 .089.032.17.09.236a.363.363 0 00.236.097h.367c.122.009.245.009.358.009zm-.4-.641a44.08 44.08 0 00.033-1.767c.618-.01.985.074 1.166.244.071.071.177.218.177.615 0 .372-.065.623-.187.745-.178.179-.554.169-1.189.163zm0-3.964c.303-.009.603-.009.806.081.138.057.277.163.293.551.009.405-.032.641-.129.745-.132.131-.464.163-.937.172 0-.673-.016-1.225-.033-1.549zm4.309 4.653c.505 0 .888-.204 1.14-.615.097-.148.01-.286-.138-.375-.155-.097-.31-.106-.407.041-.131.218-.309.318-.595.318-.593 0-.799-.578-.799-2.191 0-.583.067-1.07.206-1.394.177-.446.431-.501.593-.501.254 0 .351.071.48.241.115.138.261.115.399 0 .139-.106.22-.259.106-.397a1.277 1.277 0 00-.399-.347 1.189 1.189 0 00-.586-.131c-.284 0-.538.089-.749.269a1.508 1.508 0 00-.44.622c-.171.414-.252.965-.252 1.638 0 .658.023 1.331.194 1.848.099.301.238.529.432.69.222.195.499.284.815.284zm4.112-.721h-.007l-1.279.016a48.86 48.86 0 00.033-1.825l.847-.016c.17 0 .235-.147.235-.324-.006-.179-.071-.317-.252-.317l-.83.016c0-.638-.017-1.167-.033-1.482.644 0 1.166-.025 1.173-.025.171 0 .236-.145.229-.324-.009-.179-.081-.317-.255-.308-.006 0-.706.025-1.481.025a.296.296 0 00-.227.097.287.287 0 00-.09.234c0 .009.039.885.049 2.107a55.47 55.47 0 01-.049 2.457c0 .089.033.17.097.236.065.065.148.088.286.097.227 0 1.554-.032 1.554-.032.18 0 .27-.147.261-.324 0-.17-.088-.308-.261-.308zm3.699-4.573c-.245-.007-.316.042-.383.202-.056.138-.561 1.492-1.002 2.449-.12.277-.258.568-.397.844.007-.285.007-.602.007-.926 0-1.247-.033-2.334-.033-2.341-.009-.09-.041-.212-.325-.212-.293 0-.319.138-.319.228 0 .016.042 1.094.033 2.325 0 1.234-.033 2.19-.033 2.385 0 .145.074.225.222.267.145.032.293 0 .358-.138a51.89 51.89 0 001.074-2.164c.122-.268.253-.568.376-.867 0 .388-.01.793-.01 1.158 0 1.004.042 1.76.042 1.793.007.17.162.243.332.234.18-.009.319-.097.303-.267 0-.009-.032-.772-.032-1.76 0-1.231.041-2.764.041-2.925 0-.156-.019-.276-.254-.285zm-1.14-.317c.351-.007.669-.08.895-.25.213-.145.352-.357.458-.536.09-.154.006-.331-.139-.42-.155-.081-.326-.049-.416.105-.17.299-.302.437-.75.462-.358.016-.519-.154-.674-.455-.083-.154-.261-.193-.425-.112-.155.08-.228.25-.145.404.177.349.503.802 1.196.802zm6.59 5.611c.432 0 .789-.138 1.043-.406a1.46 1.46 0 00.332-.6c.068-.228.091-.494.084-.786-.025-.519-.222-.908-.587-1.174a1.13 1.13 0 00.333-.503 1.65 1.65 0 00.09-.683c-.026-.478-.235-.737-.416-.875-.212-.17-.496-.251-.838-.258-.341 0-.644.104-.873.315a1.237 1.237 0 00-.399.779c-.023.177.099.276.27.292.178.023.342-.032.368-.211.038-.341.268-.536.625-.536.196 0 .358.041.457.122.097.08.155.211.171.407.016.299-.058.526-.203.664-.222.218-.496.211-.789.211-.165 0-.245.161-.245.324 0 .161.071.308.252.308.341 0 .618-.009.872.193.161.147.251.359.268.657.016.414-.065.738-.236.917-.131.138-.325.212-.579.212-.432 0-.661-.391-.684-.658-.009-.179-.171-.236-.342-.218-.179.016-.309.096-.293.273.024.301.171.61.381.837.254.259.58.397.938.397zm5.018-.34c0-.009-.139-.869-.416-2.158-.194-.898-.513-2.171-.642-2.584-.058-.187-.203-.212-.335-.203-.122.016-.235.065-.277.186 0 .007-.438 1.274-.748 2.505-.351 1.395-.515 2.213-.515 2.254-.032.17.058.258.229.292.18.032.367-.009.399-.188 0-.007.129-.649.399-1.767l.929-.039c.228 1.109.325 1.668.341 1.774.026.153.213.259.383.236.181-.016.284-.131.253-.308zm-1.393-3.536c.081.317.18.721.286 1.202l-.637.022c.116-.436.238-.859.351-1.224zm4.44-.777c.178 0 .277-.138.277-.317 0-.177-.099-.315-.277-.315h-1.736a.294.294 0 00-.226.097.287.287 0 00-.09.234c0 .009.039.875.048 2.107a56.36 56.36 0 01-.048 2.457c0 .089.032.17.09.236a.363.363 0 00.235.097l.725.009c.49.007.945-.057 1.238-.349.261-.253.374-.674.374-1.241 0-.478-.088-.834-.374-1.119-.293-.299-.764-.414-1.605-.414 0-.671-.016-1.158-.032-1.482h1.401zm-1.401 3.964c.016-.382.032-1.135.032-1.85.619-.007.986.073 1.166.243.072.075.178.261.178.658 0 .372-.065.664-.187.786-.178.179-.554.169-1.189.163zm4.308.689c.426 0 .987-.17 1.254-1.013.164-.519.189-1.176.189-1.809 0-.721-.083-1.273-.253-1.67-.293-.712-.807-.859-1.19-.859-.284 0-.537.089-.747.269a1.51 1.51 0 00-.442.622c-.171.414-.251.965-.251 1.638 0 .658.023 1.331.194 1.848.099.301.238.529.432.69.221.195.498.284.814.284zm0-4.717c.187 0 .432.055.603.468.132.318.197.796.197 1.427 0 .584-.017 1.177-.155 1.613-.165.504-.416.578-.645.578-.593 0-.798-.578-.798-2.191 0-.583.067-1.07.205-1.394.178-.446.432-.501.593-.501zm4.911-.292c-.017-.179-.088-.31-.259-.292-.009 0-.415.039-1.208.049-.805.007-.927 0-1.173 0-.235 0-.258.153-.258.323 0 .177.081.315.258.315h.889c-.009.343-.009.959-.009 1.767 0 1.241.019 2.539.019 2.546 0 .09.064.244.316.244.261 0 .318-.163.318-.244 0-.016-.009-1.305-.009-2.546-.007-.808 0-1.443 0-1.774.596-.016.896-.041.912-.041.18-.016.222-.177.204-.347zm2.022 5.009c.425 0 .986-.17 1.254-1.013.163-.519.189-1.176.189-1.809 0-.721-.083-1.273-.254-1.67-.293-.712-.806-.859-1.189-.859a1.12 1.12 0 00-.748.269 1.5 1.5 0 00-.441.622c-.171.414-.251.965-.251 1.638 0 .658.022 1.331.193 1.848.1.301.238.529.432.69.222.195.498.284.815.284zm0-4.717c.187 0 .431.055.603.468.131.318.196.796.196 1.427 0 .584-.016 1.177-.155 1.613-.163.504-.416.578-.644.578-.593 0-.799-.578-.799-2.191 0-.583.067-1.07.206-1.394.177-.446.431-.501.593-.501zm4.992-.577c-.245-.007-.316.042-.384.202-.055.138-.56 1.492-1.001 2.449-.12.277-.259.568-.397.844.007-.285.007-.602.007-.926 0-1.247-.033-2.334-.033-2.341-.009-.09-.042-.212-.326-.212-.293 0-.318.138-.318.228 0 .016.041 1.094.032 2.325 0 1.234-.032 2.19-.032 2.385 0 .145.074.225.222.267.145.032.293 0 .358-.138a52.47 52.47 0 001.073-2.164c.122-.268.254-.568.377-.867 0 .388-.01.793-.01 1.158 0 1.004.041 1.76.041 1.793.007.17.162.243.334.234.18-.009.318-.097.302-.267 0-.009-.033-.772-.033-1.76 0-1.231.042-2.764.042-2.925 0-.156-.018-.276-.254-.285zm-1.141-.317c.351-.007.67-.08.896-.25.213-.145.351-.357.457-.536.09-.154.008-.331-.138-.42-.155-.081-.325-.049-.416.105-.171.299-.302.437-.75.462-.358.016-.519-.154-.674-.455-.084-.154-.261-.193-.425-.112-.155.08-.229.25-.146.404.178.349.503.802 1.196.802z" fill="#fff"/></svg>