<?xml version="1.0" encoding="utf-8"?><svg width="1882" height="726" fill="none" xmlns="http://www.w3.org/2000/svg" viewBox="0 0 1882 726"><path class="awline1" d="M1828.5 367c0 35.65-24.78 69.718-69.84 100.792-45.05 31.063-110.27 59.058-190.91 82.576-161.28 47.034-384.1 76.132-630.25 76.132-246.147 0-468.973-29.098-630.246-76.132-80.639-23.518-145.861-51.513-190.912-82.576C71.276 436.718 46.5 402.65 46.5 367c0-35.65 24.776-69.718 69.842-100.792 45.051-31.063 110.273-59.058 190.912-82.576C468.527 136.598 691.353 107.5 937.5 107.5c246.15 0 468.97 29.098 630.25 76.132 80.64 23.518 145.86 51.513 190.91 82.576 45.06 31.074 69.84 65.142 69.84 100.792z" stroke="#1243C8"/><path class="awline2" d="M1820.11 118.465c8.44 33.985-8.18 72.606-45.73 113.404-37.54 40.781-95.92 83.628-170.72 126.022-149.59 84.785-364.77 167.702-610.091 228.641-245.321 60.939-474.293 88.354-646.169 83.423-85.942-2.466-157.579-13.017-209.839-31.49-52.283-18.481-85.038-44.839-93.48-78.824-8.442-33.985 8.172-72.606 45.73-113.404 37.541-40.781 95.913-83.627 170.711-126.022 149.591-84.785 364.775-167.702 610.096-228.64C1115.94 30.634 1344.91 3.22 1516.79 8.15c85.94 2.466 157.58 13.018 209.84 31.49 52.28 18.482 85.03 44.84 93.48 78.824z" stroke="#1243C8" stroke-opacity=".29"/><path d="M1639.01 189.389l110.03-120.158-47.9 93.342 63.3 14.352-111.42 118.529 47.16-91.574-61.17-14.491z" fill="#4A62F1"/><path class="awlightning1" d="M71.915 278.417l51.687-56.444L101.1 265.82l29.735 6.742-52.337 55.679 22.15-43.017-28.733-6.807z" fill="#1B84FF" fill-opacity=".56"/><path class="awlogo1" d="M1555.08 563.917a27.508 27.508 0 01-7.08-18.387 27.539 27.539 0 017.02-18.411l11.53 11.538v13.775l-11.47 11.485zm29.39 7.615v-20.067h-14.92v-11.956h32.82c2.48 11.077-2.1 26.156-17.9 32.023zm0-34.969v-17.05a27.34 27.34 0 0110.5 6.545 27.302 27.302 0 016.55 10.505h-17.05zm-15.86 0l-11.52-11.538a27.457 27.457 0 0118.57-7.021c1.98-.042 3.95.191 5.86.693v17.866h-12.91zm-11.52 29.369l11.53-11.45h12.9v17.867a27.657 27.657 0 01-24.43-6.417z" fill="#4A62F1"/></svg>