<?xml version="1.0" encoding="utf-8"?><svg width="1863" height="761" fill="none" xmlns="http://www.w3.org/2000/svg" viewBox="0 0 1863 761"><path d="M1824.46 378.348c0 35.647-24.97 69.716-70.4 100.791-45.4 31.063-111.13 59.058-192.41 82.576-162.54 47.034-387.11 76.133-635.192 76.133-248.08 0-472.655-29.099-635.194-76.133-81.273-23.518-147.008-51.513-192.412-82.576C53.43 448.064 28.46 413.995 28.46 378.348c0-35.648 24.97-69.717 70.39-100.791 45.405-31.064 111.14-59.059 192.413-82.577 162.539-47.034 387.114-76.132 635.194-76.132 248.082 0 472.652 29.098 635.192 76.132 81.28 23.518 147.01 51.513 192.41 82.577 45.43 31.074 70.4 65.143 70.4 100.791z" stroke="#1243C8"/><path class="axline1" d="M1711.02 152.999c9.01 35.519-5.27 75.247-39.01 116.726-33.73 41.471-86.85 84.608-155.34 126.897-136.96 84.577-335.27 165.704-562.443 223.319-227.177 57.614-440.175 80.798-600.891 71.717-80.362-4.541-147.622-17.147-197.041-37.529-49.43-20.387-80.914-48.51-89.922-84.029-9.008-35.518 5.268-75.246 39.008-116.726 33.733-41.47 86.856-84.607 155.34-126.897 136.964-84.576 335.267-165.704 562.444-223.318C1050.34 45.544 1263.34 22.36 1424.06 31.441c80.36 4.541 147.62 17.147 197.04 37.53 49.43 20.386 80.91 48.509 89.92 84.028z" stroke="#1243C8" stroke-opacity=".29"/><path d="M134.581 661.839l76.259-83.277-33.199 64.691 43.87 9.947-77.216 82.148 32.679-63.466-42.393-10.043z" fill="#4A62F1"/><path class="axlogo1" d="M1574.1 96.459a46.544 46.544 0 01-11.97-31.09A46.549 46.549 0 011574 34.236l19.49 19.51V77.04l-19.39 19.42zm49.7 12.876V75.403h-25.23V55.188h55.49c4.19 18.73-3.54 44.227-30.26 54.147zm0-59.13v-28.83a46.33 46.33 0 0117.76 11.067 46.424 46.424 0 0111.07 17.763h-28.83zm-26.82 0l-19.49-19.51a46.468 46.468 0 0131.42-11.87 35.95 35.95 0 019.89 1.17v30.21h-21.82zm-19.47 49.66l19.49-19.36h21.8v30.211a46.694 46.694 0 01-21.95-.434 46.72 46.72 0 01-19.34-10.417z" fill="#4A62F1"/></svg>