<?xml version="1.0" encoding="utf-8"?><svg width="38" height="38" fill="none" xmlns="http://www.w3.org/2000/svg" viewBox="0 0 38 38"><circle cx="19" cy="19" r="19" fill="currentColor"/><path d="M23.517 29.359h-9.034a5.973 5.973 0 01-5.965-5.966V14.36a5.973 5.973 0 015.965-5.965h9.034a5.973 5.973 0 015.966 5.965v9.034c0 3.282-2.684 5.966-5.966 5.966zm-9.034-19.172a4.179 4.179 0 00-4.172 4.172v9.034a4.179 4.179 0 004.172 4.172h9.034a4.179 4.179 0 004.172-4.172V14.36a4.179 4.179 0 00-4.172-4.172h-9.034z" fill="#fff"/><path d="M19 24.244a5.37 5.37 0 01-5.367-5.368A5.37 5.37 0 0119 13.51a5.37 5.37 0 015.368 5.367c0 2.95-2.418 5.368-5.368 5.368zm0-8.942a3.575 3.575 0 000 7.148 3.584 3.584 0 003.574-3.574A3.584 3.584 0 0019 15.302zM25.882 13.19c0 .718-.571 1.289-1.289 1.289a1.282 1.282 0 01-1.288-1.289c0-.717.571-1.289 1.288-1.289a1.29 1.29 0 011.29 1.29z" fill="#fff"/></svg>