<?xml version="1.0" encoding="utf-8"?><svg width="156" height="24" fill="none" xmlns="http://www.w3.org/2000/svg" viewBox="0 0 156 24"><path fill-rule="evenodd" clip-rule="evenodd" d="M3.73 20.42H0V0h8.076v3.76H3.724l.006 16.66zM16.55 0h8.697v3.76h-4.814V7.7h3.73v3.76h-3.73v5.207h5.125v3.76H16.55V0zm24.544 11.46h-3.572v8.953H33.64V0h3.882v7.7h3.572V0h3.73v20.42h-3.73v-8.96zM53.245 0h8.698v3.76h-4.815V7.7h3.73v3.76h-3.73v5.207h5.125v3.76h-9.008V0zM77.32 5.907c0-.927-.546-2.147-1.396-2.147h-1.736v6.627h1.76c.856 0 1.395-1.734 1.395-2.507l-.023-1.973zM76.85 14h-2.662v6.447h-3.882V0h6.369c.586.014 1.163.16 1.7.428.536.27 1.02.657 1.424 1.14.404.482.72 1.051.93 1.674.21.622.308 1.285.291 1.951V8.42c.024 2.247-1.09 5.58-4.17 5.58zm16.07-8.593l-1.244 7.52h2.487l-1.243-7.52zm1.865 10.926h-3.73l-.622 4.12h-3.882L90.433 0h4.973l3.883 20.42h-3.883l-.621-4.087zm20.725 4.12h-9.653V0h3.883v16.667h3.419V0h3.882v16.667h1.554V24h-3.108l.023-3.547zm17.776-10.926l-3.882 8.773v2.147h-3.883V0h3.883v10.927l3.882-8.774V0h3.883v20.42h-3.883V9.527zm18.832-5.734h-1.865c-.675 0-1.244 1.014-1.244 1.614v2.326c0 .667.493 2.147 1.085 2.147h2.018l.006-6.087zm0 16.667v-7.207h-1.244l-2.486 7.167h-4.194l3.419-8.06s-2.345-1.193-2.345-4.833V4.86c0-2.78 1.706-4.833 4.504-4.833H156v20.42l-3.882.013z" fill="#404040"/></svg>