<?xml version="1.0" encoding="utf-8"?><svg width="38" height="38" fill="none" xmlns="http://www.w3.org/2000/svg" viewBox="0 0 38 38"><circle cx="19" cy="19" r="19" fill="currentColor"/><path fill-rule="evenodd" clip-rule="evenodd" d="M29.794 11.91a8.97 8.97 0 01-2.568.702 4.471 4.471 0 001.963-2.474 8.957 8.957 0 01-2.838 1.086 4.472 4.472 0 00-7.618 4.077 12.685 12.685 0 01-9.215-4.672 4.457 4.457 0 00-.604 2.246c0 1.551.79 2.92 1.99 3.72a4.46 4.46 0 01-2.026-.56v.056a4.472 4.472 0 003.586 4.383 4.529 4.529 0 01-2.019.075 4.477 4.477 0 004.175 3.105 8.968 8.968 0 01-5.554 1.915c-.36 0-.715-.023-1.066-.062a12.653 12.653 0 006.854 2.01c8.223 0 12.72-6.812 12.72-12.72 0-.195-.004-.387-.014-.579a9.044 9.044 0 002.23-2.315l.004.007z" fill="#fff"/></svg>