<?xml version="1.0" encoding="utf-8"?><svg width="157" height="25" fill="none" xmlns="http://www.w3.org/2000/svg" viewBox="0 0 157 25"><path fill-rule="evenodd" clip-rule="evenodd" d="M4.642 21.32H.912V.9h8.076v3.76H4.636l.006 16.66zM17.462.9h8.697v3.76h-4.814V8.6h3.73v3.76h-3.73v5.206h5.125v3.76h-9.008V.9zm24.544 11.46h-3.572v8.953h-3.882V.899h3.882v7.7h3.572V.9h3.73v20.42h-3.73v-8.96zM54.157.9h8.698v3.76H58.04V8.6h3.73v3.76h-3.73v5.206h5.125v3.76h-9.008V.9zm24.075 5.906c0-.927-.546-2.147-1.396-2.147H75.1v6.627h1.76c.856 0 1.395-1.733 1.395-2.507l-.023-1.973zm-.47 8.093H75.1v6.447h-3.882V.9h6.369c.586.014 1.164.16 1.7.429s1.02.656 1.424 1.139c.404.483.72 1.052.93 1.674.21.622.309 1.286.291 1.952v3.226c.024 2.247-1.09 5.58-4.17 5.58zm16.07-8.593l-1.244 7.52h2.487l-1.243-7.52zm1.865 10.927h-3.73l-.622 4.12h-3.882L91.345.899h4.973l3.883 20.42h-3.883l-.621-4.086zm20.725 4.12h-9.653V.899h3.883v16.667h3.419V.9h3.882v16.667h1.554V24.9h-3.108l.023-3.546zm17.776-10.927l-3.882 8.774v2.146h-3.883V.9h3.883v10.927l3.882-8.773V.899h3.883v20.42h-3.883V10.427zm18.832-5.733h-1.865c-.675 0-1.244 1.013-1.244 1.613v2.327c0 .666.493 2.147 1.085 2.147h2.018l.006-6.087zm0 16.666v-7.206h-1.244L149.3 21.32h-4.194l3.42-8.06s-2.346-1.194-2.346-4.834V5.76c0-2.78 1.706-4.833 4.504-4.833h6.228v20.42l-3.882.013z" fill="#fff"/></svg>