<?xml version="1.0" encoding="utf-8"?><svg width="32" height="32" fill="none" xmlns="http://www.w3.org/2000/svg" viewBox="0 0 32 32"><path d="M4.011 26.693a15.515 15.515 0 01-.035-20.74l6.498 6.503v7.764L4.01 26.693zm16.565 4.292v-11.31h-8.408v-6.739h18.494c1.4 6.243-1.18 14.743-10.086 18.05zm0-19.71v-9.61a15.424 15.424 0 019.611 9.61h-9.611zm-8.937 0L5.14 4.772A15.487 15.487 0 0115.612.815a11.986 11.986 0 013.3.39v10.07h-7.273zM5.146 27.83l6.498-6.453h7.267v10.07a15.576 15.576 0 01-13.765-3.617z" fill="#414141"/></svg>