<?xml version="1.0" encoding="utf-8"?><svg width="1698" height="855" fill="none" xmlns="http://www.w3.org/2000/svg" viewBox="0 0 1698 855"><path class="bgline1" d="M1642.89 621.254c10.57-38.338-2.15-81.228-34.37-126.008-32.23-44.776-83.91-91.372-151.09-137.073-134.35-91.399-330.62-179.153-556.96-241.581-226.334-62.428-439.839-87.698-602.054-78.1-81.11 4.798-149.368 18.313-199.99 40.239-50.626 21.927-83.535 52.231-94.11 90.57-10.574 38.338 2.147 81.228 34.374 126.008 32.223 44.776 83.901 91.372 151.083 137.072 134.358 91.399 330.628 179.154 556.963 241.582 226.334 62.428 439.834 87.698 602.054 78.1 81.11-4.799 149.37-18.314 199.99-40.239 50.63-21.928 83.54-52.232 94.11-90.57z" stroke="url(#bgpaint0_linear_52_5)" stroke-opacity=".53"/><path class="bglogo1" d="M1607.47 656.341a38.094 38.094 0 01-7.85-26.127 38.11 38.11 0 0111.62-24.682l14.71 17.137-1.45 19.017-17.03 14.655zm39.78 13.592l2.1-27.704-20.59-1.563 1.25-16.505 45.3 3.437c2.26 15.552-5.63 35.891-28.06 42.335zm3.66-48.278l1.79-23.538a37.913 37.913 0 0121.75 25.325l-23.54-1.787zm-21.89-1.661l-14.71-17.137a38.056 38.056 0 0126.39-7.746c2.73.149 5.42.677 8 1.569l-1.87 24.666-17.81-1.352zm-18.98 39.339l17.11-14.599 17.81 1.351-1.88 24.666c-6.02.859-12.15.271-17.9-1.714a38.341 38.341 0 01-15.14-9.704z" fill="#fff"/><defs><linearGradient id="bgpaint0_linear_52_5" x1="642.979" y1="531.053" x2="119.112" y2="17.542" gradientUnits="userSpaceOnUse"><stop stop-color="#fff"/><stop offset=".708" stop-color="#fff" stop-opacity="0"/></linearGradient></defs></svg>