<?xml version="1.0" encoding="utf-8"?><svg width="1583" height="843" fill="none" xmlns="http://www.w3.org/2000/svg" viewBox="0 0 1583 843"><path class="bfline1" d="M1513.08 558.734c9.5-40.956-1.56-84.686-29.79-128.726-28.23-44.043-73.61-88.36-132.67-130.448-118.12-84.174-290.87-159.375-490.245-205.627C660.998 47.682 472.787 39.147 329.673 62.72c-71.558 11.787-131.816 31.597-176.555 58.712-44.737 27.114-73.92 61.508-83.421 102.464-9.501 40.955 1.559 84.685 29.789 128.726 28.231 44.043 73.613 88.359 132.674 130.447 118.118 84.175 290.864 159.376 490.241 205.627 199.376 46.252 387.589 54.787 530.699 31.214 71.56-11.787 131.82-31.597 176.56-58.712 44.73-27.114 73.92-61.508 83.42-102.464z" stroke="url(#bfpaint0_linear_49_11)" stroke-opacity=".53"/><path class="bflogo1" d="M1377.34 376.769A44.115 44.115 0 011366 347.32a44.106 44.106 0 0111.24-29.486l18.47 18.479v22.061l-18.37 18.395zm47.07 12.196v-32.14h-23.89v-19.147h52.55c3.98 17.74-3.35 41.891-28.66 51.287zm0-56.007v-27.306a43.838 43.838 0 0127.31 27.306h-27.31zm-25.39 0l-18.47-18.479a44.026 44.026 0 0129.76-11.244c3.16-.067 6.31.306 9.37 1.109v28.614h-20.66zm-18.45 47.037l18.46-18.337h20.65v28.614a44.244 44.244 0 01-39.11-10.277z" fill="#414141"/><defs><linearGradient id="bfpaint0_linear_49_11" x1="632.132" y1="432.368" x2="159.156" y2="162.588" gradientUnits="userSpaceOnUse"><stop stop-color="#1243C8"/><stop offset="1" stop-color="#1243C8" stop-opacity="0"/></linearGradient></defs></svg>