<svg width="1824" height="559" viewBox="0 0 1824 559" fill="none" xmlns="http://www.w3.org/2000/svg">
    <path d="M1823.5 256.859C1823.5 270.606 1817.2 284.071 1805.1 297.128C1793.01 310.188 1775.15 322.809 1752.1 334.849C1706.01 358.926 1639.27 380.625 1556.77 398.853C1391.78 435.307 1163.82 457.859 912 457.859C660.183 457.859 432.221 435.307 267.226 398.853C184.725 380.625 117.994 358.926 71.901 334.849C48.8538 322.809 30.9908 310.188 18.8954 297.128C6.80248 284.071 0.5 270.606 0.5 256.859C0.5 243.112 6.80248 229.646 18.8954 216.589C30.9908 203.53 48.8538 190.908 71.901 178.869C117.994 154.792 184.725 133.093 267.226 114.865C432.221 78.4107 660.183 55.8589 912 55.8589C1163.82 55.8589 1391.78 78.4107 1556.77 114.865C1639.27 133.093 1706.01 154.792 1752.1 178.869C1775.15 190.908 1793.01 203.53 1805.1 216.589C1817.2 229.646 1823.5 243.112 1823.5 256.859Z" stroke="white"/>
    <path d="M1739.29 127.999C1741.68 140.585 1738.51 153.961 1730.19 167.925C1721.87 181.893 1708.42 196.42 1690.33 211.278C1654.15 240.994 1599.48 271.967 1530.39 302.388C1392.21 363.226 1196.46 421.809 975.882 463.708C755.307 505.606 551.707 522.881 400.845 516.948C325.41 513.98 263.189 505.211 218.633 490.831C196.354 483.641 178.517 475.056 165.656 465.112C152.798 455.171 144.937 443.891 142.546 431.305C140.156 418.718 143.333 405.342 151.65 391.378C159.969 377.411 173.416 362.884 191.506 348.025C227.686 318.309 282.358 287.336 351.451 256.916C489.629 196.078 685.383 137.495 905.958 95.5959C1126.53 53.6972 1330.13 36.4221 1480.99 42.356C1556.43 45.3231 1618.65 54.0922 1663.21 68.4722C1685.49 75.6622 1703.32 84.2471 1716.18 94.1912C1729.04 104.133 1736.9 115.412 1739.29 127.999Z" stroke="white" stroke-opacity="0.43"/>
    <path d="M163.302 502.814C157.431 496.303 154.175 487.848 154.16 479.078C154.145 470.308 157.373 461.842 163.222 455.312L178.104 470.206V487.988L163.302 502.814ZM201.24 512.644V486.739H181.985V471.306H224.342C227.547 485.605 221.64 505.071 201.24 512.644ZM201.24 467.502V445.493C206.345 447.236 210.983 450.126 214.799 453.941C218.614 457.756 221.507 462.395 223.254 467.502H201.24ZM180.771 467.502L165.889 452.608C172.476 446.701 181.029 443.469 189.872 443.545C192.42 443.491 194.963 443.791 197.428 444.438V467.502H180.771ZM165.901 505.414L180.783 490.635H197.428V513.698C191.893 514.921 186.147 514.808 180.665 513.367C175.183 511.927 170.122 509.201 165.901 505.414Z" fill="white"/>
    <path d="M1579.51 68.4934C1575.24 63.7532 1572.87 57.5982 1572.86 51.2134C1572.85 44.8286 1575.2 38.6656 1579.45 33.9112L1590.29 44.7545V57.6999L1579.51 68.4934ZM1607.13 75.6498V56.7907H1593.11V45.5553H1623.95C1626.28 55.9649 1621.98 70.1364 1607.13 75.6498ZM1607.13 42.786V26.7628C1610.85 28.032 1614.22 30.1359 1617 32.9134C1619.78 35.6908 1621.89 39.068 1623.16 42.786H1607.13ZM1592.23 42.786L1581.4 31.9426C1586.19 27.6429 1592.42 25.2899 1598.86 25.3449C1600.71 25.3054 1602.56 25.5243 1604.36 25.9955V42.786H1592.23ZM1581.4 70.3865L1592.24 59.6267H1604.36V76.4172C1600.33 77.3076 1596.14 77.2249 1592.15 76.1763C1588.16 75.1274 1584.48 73.1429 1581.4 70.3865Z" fill="white"/>
</svg>