<svg width="712" height="242" viewBox="0 0 712 242" fill="none" xmlns="http://www.w3.org/2000/svg">
<path d="M703.961 80.326C704.472 85.1114 702.78 90.0625 698.999 95.1256C695.216 100.192 689.364 105.338 681.626 110.487C666.153 120.784 643.232 131.032 614.541 140.653C557.169 159.892 476.829 176.587 387.125 186.169C297.421 195.751 215.367 196.403 155.225 189.718C125.15 186.374 100.581 181.199 83.2816 174.402C74.6312 171.004 67.824 167.21 63.0562 163.058C58.2911 158.907 55.5914 154.425 55.0802 149.64C54.569 144.855 56.2611 139.904 60.042 134.841C63.8251 129.775 69.6773 124.628 77.4147 119.479C92.8884 109.182 115.809 98.9339 144.499 89.3132C201.872 70.0744 282.212 53.3793 371.916 43.797C461.62 34.2148 543.674 33.5628 603.816 40.2486C633.891 43.5919 658.46 48.7673 675.759 55.5636C684.41 58.9621 691.217 62.7559 695.985 66.9085C700.75 71.0587 703.45 75.5406 703.961 80.326Z" stroke="white"/>
<path d="M610.538 29.8387C611.935 33.8904 611.537 38.496 609.426 43.5892C607.314 48.6864 603.498 54.2418 598.112 60.1543C587.341 71.979 570.362 85.1545 548.45 98.865C504.633 126.282 441.184 155.778 368.491 180.846C295.798 205.914 227.654 221.796 176.252 227.216C150.546 229.926 129.055 230.016 113.285 227.344C105.399 226.008 98.9699 223.986 94.1649 221.274C89.3635 218.564 86.2112 215.183 84.814 211.132C83.4168 207.08 83.8149 202.474 85.9255 197.381C88.0376 192.284 91.8535 186.728 97.2395 180.816C108.011 168.991 124.99 155.816 146.902 142.105C190.719 114.689 254.168 85.1922 326.861 60.1244C399.554 35.0567 467.697 19.1743 519.1 13.7547C544.806 11.0445 566.297 10.954 582.067 13.6258C589.953 14.9618 596.382 16.9842 601.187 19.696C605.988 22.4058 609.141 25.787 610.538 29.8387Z" stroke="white" stroke-opacity="0.26"/>
<circle cx="228.196" cy="218.716" r="16.1958" fill="#212525"/>
<path d="M216.44 229.779C213.87 226.928 212.445 223.228 212.438 219.389C212.432 215.55 213.845 211.844 216.405 208.986L222.919 215.505V223.289L216.44 229.779ZM233.046 234.081V222.742H224.618V215.987H243.159C244.562 222.246 241.976 230.766 233.046 234.081ZM233.046 214.322V204.688C235.281 205.451 237.311 206.716 238.981 208.386C240.652 210.056 241.918 212.086 242.682 214.322H233.046ZM224.087 214.322L217.573 207.802C220.456 205.217 224.2 203.802 228.071 203.835C229.186 203.811 230.299 203.943 231.378 204.226V214.322H224.087ZM217.578 230.917L224.092 224.447H231.378V234.543C228.955 235.078 226.44 235.028 224.04 234.398C221.64 233.767 219.425 232.574 217.578 230.917Z" fill="white"/>
<circle cx="479.85" cy="7.94946" r="7.90039" fill="#212525"/>
<path d="M474.116 24.061C472.863 22.6707 472.167 20.8655 472.164 18.9928C472.161 17.1202 472.85 15.3126 474.099 13.9181L477.277 17.0985V20.8953L474.116 24.061ZM482.217 26.16V20.6286H478.105V17.3333H487.15C487.834 20.3864 486.573 24.5429 482.217 26.16ZM482.217 16.5211V11.8215C483.307 12.1938 484.297 12.8108 485.112 13.6255C485.927 14.4401 486.544 15.4306 486.917 16.5211H482.217ZM477.846 16.5211L474.669 13.3407C476.075 12.0796 477.901 11.3895 479.789 11.4056C480.333 11.394 480.876 11.4583 481.403 11.5964V16.5211H477.846ZM474.671 24.6163L477.849 21.4604H481.403V26.3851C480.221 26.6462 478.994 26.622 477.823 26.3144C476.653 26.0068 475.572 25.4247 474.671 24.6163Z" fill="white"/>
</svg>
