 <svg width="1617" height="592" viewBox="0 0 1617 592" fill="none" xmlns="http://www.w3.org/2000/svg">
    <path d="M1616.5 297.254C1616.5 309.413 1610.92 321.328 1600.21 332.888C1589.49 344.45 1573.66 355.628 1553.23 366.291C1512.38 387.617 1453.22 406.837 1380.09 422.984C1233.82 455.276 1031.74 475.254 808.5 475.254C585.264 475.254 383.177 455.276 236.912 422.984C163.775 406.837 104.623 387.617 63.7673 366.291C43.3388 355.628 27.5092 344.45 16.7926 332.888C6.07833 321.328 0.5 309.413 0.5 297.254C0.5 285.095 6.07833 273.18 16.7926 261.62C27.5092 250.057 43.3388 238.88 63.7673 228.217C104.623 206.891 163.775 187.671 236.912 171.524C383.177 139.231 585.264 119.254 808.5 119.254C1031.74 119.254 1233.82 139.231 1380.09 171.524C1453.22 187.671 1512.38 206.891 1553.23 228.217C1573.66 238.88 1589.49 250.057 1600.21 261.62C1610.92 273.18 1616.5 285.095 1616.5 297.254Z" stroke="white"/>
    <path d="M1474.29 162.766C1476.39 173.837 1473.61 185.605 1466.31 197.895C1459.02 210.187 1447.21 222.974 1431.32 236.053C1399.55 262.211 1351.52 289.471 1290.82 316.239C1169.43 369.772 997.437 421.296 803.625 458.111C609.813 494.926 430.908 510.056 298.34 504.764C232.051 502.118 177.376 494.366 138.223 481.681C118.647 475.339 102.976 467.771 91.6767 459.011C80.3811 450.253 73.4791 440.325 71.3761 429.253C69.2731 418.182 72.0538 406.414 79.3515 394.125C86.6514 381.832 98.4559 369.045 114.343 355.966C146.118 329.808 194.143 302.549 254.844 275.78C376.238 222.247 548.23 170.723 742.042 133.908C935.853 97.0932 1114.76 81.9632 1247.33 87.2555C1313.62 89.9018 1368.29 97.6535 1407.44 110.338C1427.02 116.681 1442.69 124.249 1453.99 133.009C1465.29 141.766 1472.19 151.695 1474.29 162.766Z" stroke="white" stroke-opacity="0.43"/>
    <path d="M138.251 507.092C132.381 500.581 129.124 492.126 129.109 483.356C129.095 474.586 132.322 466.12 138.171 459.589L153.053 474.484V492.266L138.251 507.092ZM176.189 516.922V491.017H156.934V475.584H199.291C202.496 489.883 196.589 509.349 176.189 516.922ZM176.189 471.78V449.77C181.294 451.514 185.932 454.404 189.748 458.219C193.564 462.034 196.456 466.673 198.203 471.78H176.189ZM155.721 471.78L140.839 456.885C147.425 450.979 155.978 447.747 164.822 447.823C167.369 447.768 169.912 448.069 172.377 448.716V471.78H155.721ZM140.85 509.692L155.732 494.912H172.377V517.976C166.842 519.199 161.096 519.086 155.614 517.645C150.132 516.204 145.071 513.478 140.85 509.692Z" fill="white"/>
    <path d="M1320.87 106.027C1317.53 102.331 1315.69 97.5325 1315.68 92.5546C1315.67 87.5768 1317.5 82.7718 1320.82 79.065L1329.27 87.519V97.6118L1320.87 106.027ZM1342.4 111.606V96.903H1331.47V88.1433H1355.51C1357.33 96.2591 1353.98 107.308 1342.4 111.606ZM1342.4 85.9843V73.4919C1345.3 74.4814 1347.93 76.1217 1350.09 78.2871C1352.26 80.4525 1353.9 83.0855 1354.89 85.9843H1342.4ZM1330.78 85.9843L1322.33 77.5303C1326.07 74.178 1330.93 72.3435 1335.95 72.3863C1337.39 72.3556 1338.84 72.5263 1340.24 72.8936V85.9843H1330.78ZM1322.34 107.503L1330.79 99.114H1340.24V112.205C1337.09 112.899 1333.83 112.834 1330.72 112.017C1327.61 111.199 1324.74 109.652 1322.34 107.503Z" fill="white"/>
</svg>