<svg width="703" height="299" viewBox="0 0 703 299" fill="none" xmlns="http://www.w3.org/2000/svg">
<path d="M694.387 109.429C694.898 114.215 693.206 119.166 689.425 124.229C685.642 129.295 679.789 134.441 672.052 139.59C656.578 149.887 633.658 160.135 604.967 169.756C547.594 188.995 467.255 205.69 377.55 215.272C287.846 224.855 205.793 225.507 145.651 218.821C115.575 215.477 91.0071 210.302 73.7074 203.506C65.057 200.107 58.2498 196.313 53.482 192.161C48.7169 188.011 46.0172 183.529 45.506 178.743C44.9948 173.958 46.6869 169.007 50.4678 163.944C54.2509 158.878 60.1031 153.732 67.8405 148.583C83.3142 138.285 106.235 128.037 134.925 118.416C192.298 99.1777 272.638 82.4826 362.342 72.9003C452.046 63.318 534.1 62.6661 594.242 69.3518C624.317 72.6951 648.886 77.8705 666.185 84.6669C674.836 88.0653 681.643 91.8592 686.411 96.0117C691.176 100.162 693.875 104.644 694.387 109.429Z" stroke="white"/>
<path d="M625.949 44.4017C627.756 48.9378 627.547 54.1952 625.423 60.0892C623.298 65.9871 619.265 72.4918 613.474 79.4815C601.893 93.4604 583.351 109.298 559.25 126.001C511.056 159.404 440.729 196.207 359.693 228.484C278.657 260.76 202.284 282.387 144.323 291.266C115.338 295.707 90.9846 296.955 72.9641 294.766C63.9536 293.672 56.5527 291.721 50.9544 288.899C45.3598 286.08 41.5934 282.406 39.7867 277.87C37.98 273.334 38.189 268.076 40.313 262.182C42.4383 256.284 46.4714 249.78 52.2621 242.79C63.8431 228.811 82.3854 212.974 106.486 196.27C154.68 162.868 225.007 126.064 306.043 93.7877C387.079 61.5111 463.451 39.8843 521.413 31.005C550.398 26.5648 574.751 25.3168 592.772 27.5055C601.782 28.5998 609.183 30.5504 614.781 33.372C620.376 36.1917 624.143 39.8657 625.949 44.4017Z" stroke="white" stroke-opacity="0.26"/>
<circle cx="230.23" cy="270.753" r="16.7846" fill="#212525"/>
<path d="M218.046 281.538C215.382 278.584 213.905 274.749 213.898 270.77C213.892 266.792 215.356 262.952 218.009 259.989L224.76 266.746V274.812L218.046 281.538ZM235.256 285.997V274.246H226.521V267.245H245.735C247.19 273.731 244.51 282.562 235.256 285.997ZM235.256 265.519V255.535C237.571 256.326 239.675 257.637 241.406 259.367C243.137 261.098 244.449 263.202 245.242 265.519H235.256ZM225.97 265.519L219.219 258.762C222.207 256.083 226.087 254.617 230.099 254.651C231.255 254.627 232.408 254.763 233.526 255.057V265.519H225.97ZM219.224 282.718L225.976 276.013H233.526V286.476C231.016 287.03 228.409 286.979 225.922 286.325C223.435 285.672 221.139 284.435 219.224 282.718Z" fill="white"/>
<circle cx="470.1" cy="37.7754" r="7.90039" fill="#212525"/>
<path d="M464.366 45.1411C463.113 43.7508 462.417 41.9456 462.414 40.0729C462.411 38.2003 463.1 36.3927 464.349 34.9982L467.527 38.1785V41.9754L464.366 45.1411ZM472.467 47.2401V41.7087H468.355V38.4134H477.4C478.084 41.4665 476.823 45.623 472.467 47.2401ZM472.467 37.6012V32.9016C473.557 33.2738 474.547 33.8909 475.362 34.7055C476.177 35.5202 476.794 36.5107 477.167 37.6012H472.467ZM468.096 37.6012L464.919 34.4208C466.325 33.1597 468.151 32.4696 470.039 32.4857C470.583 32.4741 471.126 32.5383 471.653 32.6765V37.6012H468.096ZM464.921 45.6964L468.099 42.5405H471.653V47.4652C470.471 47.7263 469.244 47.7021 468.073 47.3945C466.903 47.0869 465.822 46.5048 464.921 45.6964Z" fill="white"/>
</svg>
