<svg width="1882" height="726" viewBox="0 0 1882 726" fill="none" xmlns="http://www.w3.org/2000/svg">
    <path class="line1" d="M1828.5 367C1828.5 402.65 1803.72 436.718 1758.66 467.792C1713.61 498.855 1648.39 526.85 1567.75 550.368C1406.47 597.402 1183.65 626.5 937.5 626.5C691.353 626.5 468.527 597.402 307.254 550.368C226.615 526.85 161.393 498.855 116.342 467.792C71.2763 436.718 46.5 402.65 46.5 367C46.5 331.35 71.2763 297.282 116.342 266.208C161.393 235.145 226.615 207.15 307.254 183.632C468.527 136.598 691.353 107.5 937.5 107.5C1183.65 107.5 1406.47 136.598 1567.75 183.632C1648.39 207.15 1713.61 235.145 1758.66 266.208C1803.72 297.282 1828.5 331.35 1828.5 367Z" stroke="#1243C8"/>
    <path class="line2" d="M1820.11 118.465C1828.55 152.45 1811.93 191.071 1774.38 231.869C1736.84 272.65 1678.46 315.497 1603.66 357.891C1454.07 442.676 1238.89 525.593 993.569 586.532C748.248 647.471 519.276 674.886 347.4 669.955C261.458 667.489 189.821 656.938 137.561 638.465C85.278 619.984 52.5232 593.626 44.0811 559.641C35.639 525.656 52.2528 487.035 89.8104 446.237C127.352 405.456 185.724 362.61 260.522 320.215C410.113 235.43 625.297 152.513 870.618 91.5743C1115.94 30.6351 1344.91 3.22078 1516.79 8.15146C1602.73 10.6169 1674.37 21.1687 1726.63 39.6417C1778.91 58.1228 1811.66 84.4803 1820.11 118.465Z" stroke="#1243C8" stroke-opacity="0.29"/>
    <path d="M1639.01 189.389L1749.04 69.231L1701.14 162.573L1764.44 176.925L1653.02 295.454L1700.18 203.88L1639.01 189.389Z" fill="#4A62F1"/>
    <path class="lightning1" d="M71.9145 278.417L123.602 221.973L101.1 265.82L130.835 272.562L78.4984 328.241L100.648 285.224L71.9145 278.417Z" fill="#1B84FF" fill-opacity="0.56"/>
    <path class="logo1" d="M1555.08 563.917C1550.53 558.873 1548.01 552.324 1548 545.53C1547.99 538.736 1550.49 532.178 1555.02 527.119L1566.55 538.657V552.432L1555.08 563.917ZM1584.47 571.532V551.465H1569.55V539.509H1602.37C1604.85 550.586 1600.27 565.665 1584.47 571.532ZM1584.47 536.563V519.513C1588.42 520.864 1592.02 523.102 1594.97 526.058C1597.93 529.013 1600.17 532.607 1601.52 536.563H1584.47ZM1568.61 536.563L1557.09 525.025C1562.19 520.45 1568.81 517.946 1575.66 518.004C1577.64 517.962 1579.61 518.195 1581.52 518.697V536.563H1568.61ZM1557.09 565.932L1568.62 554.482H1581.52V572.349C1577.23 573.296 1572.78 573.208 1568.53 572.092C1564.28 570.976 1560.36 568.865 1557.09 565.932Z" fill="#4A62F1"/>
    </svg>