<svg width="730" height="364" viewBox="0 0 730 364" fill="none" xmlns="http://www.w3.org/2000/svg">
<path d="M691.538 123.487C693.301 136.747 685.559 150.744 669.776 164.728C654.008 178.698 630.313 192.56 600.437 205.536C540.691 231.486 456.329 253.846 361.518 266.451C266.706 279.056 179.433 279.514 114.982 270.076C82.7527 265.357 56.2597 258.167 37.3895 248.802C18.5003 239.428 7.37062 227.94 5.60777 214.68C3.84491 201.42 11.5863 187.423 27.3702 173.439C43.1382 159.469 66.8323 145.607 96.7088 132.631C156.455 106.681 240.817 84.3213 335.628 71.7164C430.44 59.1115 517.713 58.6528 582.164 68.0908C614.393 72.8104 640.886 80.0006 659.756 89.3651C678.646 98.7391 689.775 110.227 691.538 123.487Z" stroke="#1243C8" stroke-opacity="0.5"/>
<path d="M677.193 75.7183C680.9 87.9523 676.013 102.268 663.753 117.747C651.505 133.213 631.973 149.737 606.631 166.332C555.954 199.518 482.142 232.92 397.208 258.658C312.274 284.397 232.337 297.587 171.763 298.115C141.472 298.379 116.053 295.476 97.2804 289.412C78.4903 283.342 66.4788 274.147 62.7714 261.913C59.064 249.679 63.9508 235.363 76.2106 219.884C88.4591 204.418 107.991 187.894 133.333 171.299C184.01 138.113 257.822 104.711 342.756 78.9726C427.69 53.2343 507.627 40.0445 568.201 39.5164C598.492 39.2524 623.911 42.155 642.684 48.2194C661.474 54.2894 673.485 63.4843 677.193 75.7183Z" stroke="#1243C8" stroke-opacity="0.29"/>
<circle cx="227.094" cy="306.522" r="16.041" fill="white"/>
<path d="M215.184 302.937C212.531 299.995 211.059 296.175 211.053 292.212C211.046 288.249 212.505 284.424 215.147 281.473L221.872 288.203V296.238L215.184 302.937ZM232.326 307.379V295.673H223.626V288.7H242.765C244.213 295.161 241.544 303.957 232.326 307.379ZM232.326 286.981V277.036C234.633 277.823 236.729 279.129 238.453 280.853C240.177 282.577 241.484 284.673 242.273 286.981H232.326ZM223.077 286.981L216.353 280.251C219.329 277.582 223.194 276.122 227.19 276.156C228.341 276.131 229.49 276.267 230.604 276.559V286.981H223.077ZM216.358 304.112L223.082 297.434H230.604V307.855C228.103 308.408 225.506 308.356 223.029 307.706C220.552 307.054 218.265 305.823 216.358 304.112Z" fill="#4A62F1"/>
<path d="M487.492 40.4659L511.39 14.369L500.986 34.6418L514.734 37.7589L490.536 63.502L500.777 43.6132L487.492 40.4659Z" fill="#4A62F1"/>
</svg>
