<svg width="1720" height="741" viewBox="0 0 1720 741" fill="none" xmlns="http://www.w3.org/2000/svg">
<path d="M1462.08 548.734C1471.58 507.778 1460.52 464.048 1432.29 420.008C1404.06 375.965 1358.68 331.648 1299.62 289.56C1181.5 205.386 1008.75 130.185 809.375 83.9334C609.998 37.6817 421.787 29.147 278.673 52.7201C207.115 64.507 146.857 84.3169 102.118 111.432C57.381 138.546 28.1975 172.94 18.6965 213.896C9.19558 254.851 20.2557 298.581 48.4859 342.622C76.7173 386.665 122.099 430.981 181.16 473.069C299.278 557.244 472.024 632.445 671.401 678.696C870.777 724.948 1058.99 733.483 1202.1 709.91C1273.66 698.123 1333.92 678.313 1378.66 651.198C1423.39 624.084 1452.58 589.69 1462.08 548.734Z" stroke="url(#paint0_linear_10_15)" stroke-opacity="0.53"/>
<circle cx="1434.85" cy="601.847" r="38.0752" transform="rotate(4.33975 1434.85 601.847)" fill="#222626"/>
<path d="M1404.73 625.135C1398.98 617.695 1396.18 608.389 1396.88 599.008C1397.57 589.628 1401.71 580.836 1408.5 574.326L1423.2 591.463L1421.76 610.48L1404.73 625.135ZM1444.5 638.727L1446.61 611.023L1426.01 609.46L1427.27 592.955L1472.56 596.392C1474.83 611.944 1466.94 632.283 1444.5 638.727ZM1448.17 590.449L1449.95 566.911C1455.27 569.189 1460 572.657 1463.77 577.047C1467.54 581.436 1470.26 586.632 1471.71 592.236L1448.17 590.449ZM1426.28 588.788L1411.57 571.651C1419.09 565.869 1428.5 563.107 1437.95 563.905C1440.68 564.054 1443.38 564.582 1445.96 565.474L1444.09 590.14L1426.28 588.788ZM1407.3 628.127L1424.41 613.528L1442.21 614.879L1440.34 639.545C1434.32 640.404 1428.19 639.816 1422.44 637.831C1416.69 635.845 1411.5 632.519 1407.3 628.127Z" fill="white"/>
<defs>
<linearGradient id="paint0_linear_10_15" x1="581.132" y1="422.368" x2="108.156" y2="152.588" gradientUnits="userSpaceOnUse">
<stop stop-color="white"/>
<stop offset="1" stop-color="white" stop-opacity="0"/>
</linearGradient>
</defs>
</svg>
