<svg width="1720" height="741" viewBox="0 0 1720 741" fill="none" xmlns="http://www.w3.org/2000/svg">
<path d="M1462.08 548.734C1471.58 507.778 1460.52 464.048 1432.29 420.008C1404.06 375.965 1358.68 331.648 1299.62 289.56C1181.5 205.386 1008.75 130.185 809.375 83.9334C609.998 37.6817 421.787 29.147 278.673 52.7201C207.115 64.507 146.857 84.3169 102.118 111.432C57.381 138.546 28.1975 172.94 18.6965 213.896C9.19558 254.851 20.2557 298.581 48.4859 342.622C76.7173 386.665 122.099 430.981 181.16 473.069C299.278 557.244 472.024 632.445 671.401 678.696C870.777 724.948 1058.99 733.483 1202.1 709.91C1273.66 698.123 1333.92 678.313 1378.66 651.198C1423.39 624.084 1452.58 589.69 1462.08 548.734Z" stroke="url(#paint0_linear_10_14)" stroke-opacity="0.53"/>
<circle cx="1435.05" cy="602.044" r="44.0437" fill="white"/>
<path d="M1402.34 631.541C1395.06 623.463 1391.02 612.974 1391 602.093C1390.98 591.212 1394.99 580.709 1402.24 572.606L1420.71 591.086V613.147L1402.34 631.541ZM1449.41 643.737V611.597H1425.52V592.45H1478.07C1482.05 610.19 1474.72 634.341 1449.41 643.737ZM1449.41 587.731V560.424C1455.74 562.587 1461.5 566.173 1466.23 570.906C1470.97 575.639 1474.55 581.395 1476.72 587.731H1449.41ZM1424.02 587.731L1405.55 569.252C1413.72 561.924 1424.34 557.914 1435.31 558.008C1438.47 557.94 1441.62 558.314 1444.68 559.116V587.731H1424.02ZM1405.57 634.767L1424.03 616.431H1444.68V645.045C1437.81 646.562 1430.69 646.421 1423.88 644.634C1417.08 642.847 1410.8 639.465 1405.57 634.767Z" fill="#414141"/>
<defs>
<linearGradient id="paint0_linear_10_14" x1="581.132" y1="422.368" x2="108.156" y2="152.588" gradientUnits="userSpaceOnUse">
<stop stop-color="#1243C8"/>
<stop offset="1" stop-color="#1243C8" stop-opacity="0"/>
</linearGradient>
</defs>
</svg>
